<svg width="14" height="14" viewBox="0 0 14 14" fill="none" xmlns="http://www.w3.org/2000/svg">
<path d="M10.9991 0.666676C10.4652 0.666675 9.93135 0.867416 9.52782 1.26847L1.15259 9.59292C0.921972 9.82214 0.765001 9.96889 0.626556 10.1934C0.516997 10.3712 0.435978 10.5651 0.386972 10.768C0.325113 11.0242 0.332285 11.2372 0.332285 11.5614V12.6705C0.332303 12.8462 0.402546 13.0147 0.527565 13.139C0.652584 13.2633 0.82214 13.3331 0.998944 13.3331H2.1148C2.44039 13.3331 2.65576 13.34 2.91299 13.2787C3.11702 13.23 3.31222 13.1495 3.49111 13.0406C3.7171 12.9029 3.86469 12.7469 4.09527 12.5178L12.4698 4.1933C13.277 3.39114 13.277 2.07061 12.4698 1.26845C12.0663 0.86737 11.5331 0.666676 10.9991 0.666676ZM10.9991 1.98416C11.189 1.98416 11.379 2.05761 11.5278 2.20546C11.8253 2.50118 11.8253 2.96064 11.5278 3.2563L3.15254 11.5808C2.92191 11.81 2.83759 11.8845 2.79448 11.9108V11.9095C2.73476 11.9458 2.66982 11.9734 2.60177 11.9897C2.55264 12.0015 2.44091 12.0078 2.1148 12.0078H1.66558V11.5613C1.66558 11.2372 1.67199 11.1263 1.68381 11.0773C1.70013 11.0098 1.72658 10.9453 1.76324 10.8858C1.7897 10.8429 1.86468 10.7591 2.09527 10.5299L10.4698 2.20609C10.6186 2.05822 10.8086 1.98479 10.9985 1.98479L10.9991 1.98416ZM6.99918 12.0076C6.82237 12.0076 6.65281 12.0774 6.52778 12.2016C6.40276 12.3259 6.33252 12.4944 6.33252 12.6702C6.33252 12.8459 6.40276 13.0145 6.52778 13.1387C6.65281 13.263 6.82237 13.3328 6.99918 13.3328H12.9991C13.1759 13.3328 13.3455 13.263 13.4705 13.1387C13.5955 13.0145 13.6658 12.8459 13.6658 12.6702C13.6658 12.4944 13.5955 12.3259 13.4705 12.2016C13.3455 12.0774 13.1759 12.0076 12.9991 12.0076H6.99918Z" fill="#EA580C"/>
</svg>
