<svg width="20" height="20" viewBox="0 0 20 20" fill="none" xmlns="http://www.w3.org/2000/svg">
<path d="M2.50007 4.16675C2.27906 4.16675 2.0671 4.25454 1.91082 4.41082C1.75454 4.5671 1.66675 4.77906 1.66675 5.00007C1.66675 5.22108 1.75454 5.43304 1.91082 5.58932C2.0671 5.7456 2.27906 5.83339 2.50007 5.83339H17.4999C17.7209 5.83339 17.9329 5.7456 18.0891 5.58932C18.2454 5.43304 18.3332 5.22108 18.3332 5.00007C18.3332 4.77906 18.2454 4.5671 18.0891 4.41082C17.9329 4.25454 17.7209 4.16675 17.4999 4.16675H2.50007ZM2.50007 9.16669C2.27906 9.16669 2.0671 9.25448 1.91082 9.41076C1.75454 9.56704 1.66675 9.779 1.66675 10C1.66675 10.221 1.75454 10.433 1.91082 10.5893C2.0671 10.7455 2.27906 10.8333 2.50007 10.8333H17.4999C17.7209 10.8333 17.9329 10.7455 18.0891 10.5893C18.2454 10.433 18.3332 10.221 18.3332 10C18.3332 9.779 18.2454 9.56704 18.0891 9.41076C17.9329 9.25448 17.7209 9.16669 17.4999 9.16669H2.50007ZM2.50007 14.1666C2.27906 14.1666 2.0671 14.2544 1.91082 14.4107C1.75454 14.567 1.66675 14.7789 1.66675 14.9999C1.66675 15.221 1.75454 15.4329 1.91082 15.5892C2.0671 15.7455 2.27906 15.8333 2.50007 15.8333H17.4999C17.7209 15.8333 17.9329 15.7455 18.0891 15.5892C18.2454 15.4329 18.3332 15.221 18.3332 14.9999C18.3332 14.7789 18.2454 14.567 18.0891 14.4107C17.9329 14.2544 17.7209 14.1666 17.4999 14.1666H2.50007Z" fill="#667085"/>
</svg>
