<svg width="12" height="10" viewBox="0 0 12 10" fill="none" xmlns="http://www.w3.org/2000/svg">
<path d="M4.66661 0.33359C4.48981 0.333617 4.32026 0.403872 4.19526 0.528901L0.195311 4.52885C0.0702819 4.65385 2.71502e-05 4.8234 0 5.0002C2.71502e-05 5.177 0.0702819 5.34654 0.195311 5.47155L4.19526 9.47149C4.32028 9.59649 4.48983 9.66672 4.66662 9.66672C4.84341 9.66672 5.01296 9.59649 5.13798 9.47149C5.26298 9.34648 5.3332 9.17693 5.3332 9.00014C5.3332 8.82335 5.26298 8.65379 5.13798 8.52877L2.27602 5.66681H11.3332C11.51 5.66681 11.6796 5.59657 11.8046 5.47155C11.9297 5.34653 11.9999 5.17696 11.9999 5.00015C11.9999 4.82334 11.9297 4.65378 11.8046 4.52875C11.6796 4.40373 11.51 4.33349 11.3332 4.33349H2.27602L5.13798 1.47153C5.26298 1.34651 5.3332 1.17696 5.3332 1.00017C5.3332 0.823378 5.26298 0.653827 5.13798 0.528807C5.01298 0.403778 4.84341 0.333617 4.66661 0.33359Z" fill="#171717"/>
</svg>
