<svg width="17" height="16" viewBox="0 0 17 16" fill="none" xmlns="http://www.w3.org/2000/svg">
<path d="M5.16657 4C4.98977 4.00003 4.82022 4.07028 4.69522 4.19531C4.57022 4.32033 4.5 4.48988 4.5 4.66667C4.5 4.84346 4.57022 5.01301 4.69522 5.13803L7.55719 8L4.69522 10.862C4.57022 10.987 4.5 11.1565 4.5 11.3333C4.5 11.5101 4.57022 11.6797 4.69522 11.8047C4.82024 11.9297 4.98979 11.9999 5.16658 11.9999C5.34337 11.9999 5.51292 11.9297 5.63794 11.8047L8.49991 8.94272L11.3619 11.8047C11.4869 11.9297 11.6564 11.9999 11.8332 11.9999C12.01 11.9999 12.1796 11.9297 12.3046 11.8047C12.4296 11.6797 12.4998 11.5101 12.4998 11.3333C12.4998 11.1565 12.4296 10.987 12.3046 10.862L9.44263 8L12.3046 5.13803C12.4296 5.01301 12.4998 4.84346 12.4998 4.66667C12.4998 4.48988 12.4296 4.32033 12.3046 4.19531C12.1796 4.07031 12.01 4.00009 11.8332 4.00009C11.6564 4.00009 11.4869 4.07031 11.3619 4.19531L8.49991 7.05727L5.63794 4.19531C5.51294 4.07028 5.34337 4.00003 5.16657 4Z" fill="#DC2626"/>
</svg>
