<svg width="17" height="16" viewBox="0 0 17 16" fill="none" xmlns="http://www.w3.org/2000/svg">
<path d="M13.3618 3.86221L6.49991 10.7241L3.63794 7.86216C3.51292 7.73716 3.34337 7.66694 3.16658 7.66694C2.98979 7.66694 2.82024 7.73716 2.69522 7.86216C2.57022 7.98718 2.5 8.15673 2.5 8.33352C2.5 8.51031 2.57022 8.67987 2.69522 8.80489L6.02851 12.1382C6.15354 12.2632 6.32309 12.3334 6.49987 12.3334C6.67666 12.3334 6.84621 12.2632 6.97123 12.1382L14.3045 4.80494C14.4295 4.67992 14.4997 4.51037 14.4997 4.33357C14.4997 4.15678 14.4295 3.98723 14.3045 3.86221C14.1795 3.73721 14.0099 3.66699 13.8331 3.66699C13.6563 3.66699 13.4868 3.73721 13.3618 3.86221Z" fill="#D0D5DD"/>
</svg>
