<svg width="16" height="16" viewBox="0 0 16 16" fill="none" xmlns="http://www.w3.org/2000/svg">
<path d="M5.333 0.66626C5.1562 0.66626 4.98663 0.736497 4.86161 0.861519C4.73658 0.986542 4.66635 1.15611 4.66635 1.33292V2.00871C3.89356 2.00985 3.30356 2.02765 2.78877 2.28996C2.28708 2.54558 1.87905 2.95362 1.62345 3.45528C1.29862 4.09279 1.33309 4.7466 1.33309 5.86671V11.4656C1.33309 12.5857 1.29866 13.2395 1.62345 13.877C1.87907 14.3787 2.28712 14.7867 2.78877 15.0423C3.42628 15.3672 4.08009 15.3327 5.20021 15.3327H10.7991C11.9192 15.3327 12.573 15.3671 13.2105 15.0423C13.7122 14.7867 14.1202 14.3787 14.3758 13.877C14.7006 13.2395 14.6662 12.5857 14.6662 11.4656V5.86671C14.6662 4.7466 14.7007 4.0928 14.3758 3.45528C14.1202 2.9536 13.7122 2.54556 13.2105 2.28996C12.6957 2.02769 12.1057 2.00986 11.3329 2.00871V1.33292C11.3329 1.15611 11.2627 0.986542 11.1377 0.861519C11.0126 0.736497 10.8431 0.66626 10.6663 0.66626C10.4895 0.66626 10.3199 0.736497 10.1949 0.861519C10.0698 0.986542 9.99961 1.15611 9.99961 1.33292V1.99958H5.99966V1.33292C5.99966 1.15611 5.92943 0.986542 5.8044 0.861519C5.67938 0.736497 5.50981 0.66626 5.333 0.66626ZM5.99966 3.33289H9.99961V3.99955C9.99961 4.17636 10.0698 4.34593 10.1949 4.47095C10.3199 4.59597 10.4895 4.66621 10.6663 4.66621C10.8431 4.66621 11.0126 4.59597 11.1377 4.47095C11.2627 4.34593 11.3329 4.17636 11.3329 3.99955V3.37586C11.8748 3.39272 12.4513 3.40041 12.605 3.47872C12.856 3.60659 13.0592 3.80979 13.1871 4.06075C13.2982 4.27886 13.3329 4.74661 13.3329 5.86673V5.99954H2.66637V5.86673C2.66637 4.74661 2.70106 4.27888 2.8122 4.06075C2.94007 3.80979 3.14327 3.6066 3.39423 3.47872C3.54787 3.40044 4.12442 3.39273 4.66635 3.37586V3.99955C4.66635 4.17636 4.73658 4.34593 4.86161 4.47095C4.98663 4.59597 5.1562 4.66621 5.333 4.66621C5.50981 4.66621 5.67938 4.59597 5.8044 4.47095C5.92943 4.34593 5.99966 4.17636 5.99966 3.99955V3.33289ZM2.66637 7.33284H13.3329V11.4656C13.3329 12.5857 13.2983 13.0534 13.1871 13.2716C13.0592 13.5225 12.856 13.7257 12.605 13.8536C12.3868 13.9648 11.9192 13.9994 10.7991 13.9994H5.20021C4.08009 13.9994 3.61236 13.9647 3.39423 13.8536C3.14326 13.7257 2.94007 13.5225 2.8122 13.2716C2.70102 13.0534 2.66637 12.5857 2.66637 11.4656V7.33284Z" fill="#404040"/>
</svg>
