<svg width="17" height="16" viewBox="0 0 17 16" fill="none" xmlns="http://www.w3.org/2000/svg">
<path d="M13.3618 3.86197L6.49991 10.7239L3.63794 7.86192C3.51292 7.73692 3.34337 7.6667 3.16658 7.6667C2.98979 7.6667 2.82024 7.73692 2.69522 7.86192C2.57022 7.98694 2.5 8.15649 2.5 8.33328C2.5 8.51007 2.57022 8.67962 2.69522 8.80464L6.02851 12.1379C6.15354 12.2629 6.32309 12.3331 6.49987 12.3331C6.67666 12.3331 6.84621 12.2629 6.97123 12.1379L14.3045 4.80469C14.4295 4.67967 14.4997 4.51012 14.4997 4.33333C14.4997 4.15654 14.4295 3.98699 14.3045 3.86197C14.1795 3.73697 14.0099 3.66675 13.8331 3.66675C13.6563 3.66675 13.4868 3.73697 13.3618 3.86197Z" fill="#16A34A"/>
</svg>
