<svg width="40" height="40" viewBox="0 0 40 40" fill="none" xmlns="http://www.w3.org/2000/svg">
<path d="M6.875 3.66663V15.9259V36.3333C6.875 37.4379 7.77043 38.3333 8.875 38.3333H31.125C32.2296 38.3333 33.125 37.4379 33.125 36.3333V10.2049C33.125 9.95404 33.0307 9.71231 32.8608 9.5277L25.9221 1.98939C25.7327 1.78367 25.4659 1.66663 25.1863 1.66663H8.875C7.77043 1.66663 6.875 2.56206 6.875 3.66663Z" fill="#DCDFE4"/>
<path fill-rule="evenodd" clip-rule="evenodd" d="M21.875 8.54163C21.875 9.30102 21.2594 9.91663 20.5 9.91663H12C11.2406 9.91663 10.625 9.30102 10.625 8.54163C10.625 7.78223 11.2406 7.16663 12 7.16663H20.5C21.2594 7.16663 21.875 7.78223 21.875 8.54163Z" fill="#091E42" fill-opacity="0.16"/>
<path fill-rule="evenodd" clip-rule="evenodd" d="M29.375 15.875C29.375 16.6344 28.7594 17.25 28 17.25H12C11.2406 17.25 10.625 16.6344 10.625 15.875C10.625 15.1156 11.2406 14.5 12 14.5H28C28.7594 14.5 29.375 15.1156 29.375 15.875Z" fill="#091E42" fill-opacity="0.16"/>
<path d="M34 21.8334H5V31.8334C5 32.3857 5.44772 32.8334 6 32.8334H34C34.5523 32.8334 35 32.3857 35 31.8334V22.8334C35 22.2811 34.5523 21.8334 34 21.8334Z" fill="#FFCC00"/>
<path d="M6.875 20L5 21.8333H6.875V20Z" fill="#A66A02"/>
<path d="M16.6722 26.4125H15.3307C15.3062 26.2428 15.2561 26.0921 15.1806 25.9603C15.105 25.8265 15.008 25.7127 14.8896 25.6189C14.7712 25.5251 14.6344 25.4532 14.4792 25.4033C14.326 25.3534 14.1596 25.3284 13.9799 25.3284C13.6553 25.3284 13.3725 25.4073 13.1315 25.565C12.8906 25.7207 12.7037 25.9483 12.571 26.2478C12.4383 26.5453 12.3719 26.9067 12.3719 27.3319C12.3719 27.7692 12.4383 28.1365 12.571 28.434C12.7058 28.7315 12.8936 28.9561 13.1346 29.1078C13.3755 29.2596 13.6543 29.3354 13.9707 29.3354C14.1484 29.3354 14.3128 29.3125 14.4639 29.2666C14.617 29.2206 14.7528 29.1537 14.8712 29.0659C14.9897 28.9761 15.0877 28.8672 15.1653 28.7395C15.2449 28.6117 15.3 28.4659 15.3307 28.3022L16.6722 28.3082C16.6375 28.5897 16.5507 28.8613 16.4118 29.1228C16.275 29.3824 16.0902 29.6149 15.8575 29.8206C15.6267 30.0242 15.3511 30.186 15.0305 30.3057C14.712 30.4235 14.3516 30.4824 13.9493 30.4824C13.3898 30.4824 12.8896 30.3587 12.4485 30.1111C12.0095 29.8635 11.6624 29.5051 11.4071 29.036C11.1539 28.5668 11.0273 27.9988 11.0273 27.3319C11.0273 26.6631 11.156 26.0941 11.4133 25.6249C11.6705 25.1557 12.0197 24.7983 12.4608 24.5528C12.9018 24.3052 13.398 24.1814 13.9493 24.1814C14.3128 24.1814 14.6497 24.2313 14.96 24.3311C15.2725 24.431 15.5491 24.5767 15.7901 24.7684C16.031 24.958 16.2271 25.1906 16.3782 25.4662C16.5313 25.7417 16.6293 26.0571 16.6722 26.4125Z" fill="white"/>
<path d="M21.026 26.0292C21.0015 25.7876 20.8964 25.5999 20.7106 25.4662C20.5247 25.3324 20.2726 25.2655 19.954 25.2655C19.7376 25.2655 19.5548 25.2955 19.4058 25.3554C19.2567 25.4133 19.1424 25.4941 19.0627 25.5979C18.9852 25.7018 18.9464 25.8195 18.9464 25.9513C18.9423 26.0611 18.9658 26.157 19.0168 26.2388C19.0699 26.3207 19.1424 26.3916 19.2343 26.4514C19.3261 26.5093 19.4323 26.5603 19.5528 26.6042C19.6733 26.6461 19.8019 26.682 19.9387 26.712L20.5023 26.8438C20.7759 26.9037 21.0271 26.9835 21.2557 27.0833C21.4844 27.1832 21.6825 27.306 21.8499 27.4517C22.0174 27.5975 22.147 27.7692 22.2389 27.9668C22.3329 28.1645 22.3808 28.3911 22.3829 28.6466C22.3808 29.022 22.2828 29.3474 22.0888 29.6229C21.8969 29.8965 21.6192 30.1091 21.2557 30.2608C20.8943 30.4106 20.4584 30.4854 19.9479 30.4854C19.4415 30.4854 19.0005 30.4096 18.6248 30.2578C18.2511 30.1061 17.9591 29.8815 17.7488 29.584C17.5405 29.2845 17.4313 28.9142 17.4211 28.4729H18.7044C18.7187 28.6786 18.7789 28.8503 18.8851 28.988C18.9933 29.1238 19.1373 29.2266 19.317 29.2965C19.4987 29.3644 19.7039 29.3983 19.9326 29.3983C20.1572 29.3983 20.3522 29.3664 20.5176 29.3025C20.685 29.2386 20.8147 29.1498 20.9066 29.036C20.9985 28.9222 21.0444 28.7914 21.0444 28.6436C21.0444 28.5059 21.0026 28.3901 20.9188 28.2962C20.8372 28.2024 20.7167 28.1225 20.5574 28.0567C20.4002 27.9908 20.2072 27.9309 19.9785 27.877L19.2955 27.7093C18.7667 27.5835 18.3491 27.3868 18.0428 27.1193C17.7365 26.8518 17.5844 26.4914 17.5864 26.0382C17.5844 25.6668 17.6855 25.3424 17.8897 25.0649C18.0959 24.7873 18.3787 24.5707 18.7381 24.415C19.0975 24.2593 19.5058 24.1814 19.9632 24.1814C20.4288 24.1814 20.8351 24.2593 21.1822 24.415C21.5314 24.5707 21.803 24.7873 21.997 25.0649C22.1909 25.3424 22.291 25.6638 22.2971 26.0292H21.026Z" fill="white"/>
<path d="M24.4082 24.2653L25.9243 28.9251H25.9825L27.5017 24.2653H28.9718L26.8095 30.3986H25.1004L22.935 24.2653H24.4082Z" fill="white"/>
</svg>
