<svg width="16" height="16" viewBox="0 0 16 16" fill="none" xmlns="http://www.w3.org/2000/svg">
<path d="M6.66661 3.33359C6.48981 3.33362 6.32026 3.40387 6.19526 3.5289L2.19531 7.52885C2.07028 7.65385 2.00003 7.8234 2 8.0002C2.00003 8.177 2.07028 8.34654 2.19531 8.47155L6.19526 12.4715C6.32028 12.5965 6.48983 12.6667 6.66662 12.6667C6.84341 12.6667 7.01296 12.5965 7.13798 12.4715C7.26298 12.3465 7.3332 12.1769 7.3332 12.0001C7.3332 11.8233 7.26298 11.6538 7.13798 11.5288L4.27602 8.66681H13.3332C13.51 8.66681 13.6796 8.59657 13.8046 8.47155C13.9297 8.34653 13.9999 8.17696 13.9999 8.00015C13.9999 7.82334 13.9297 7.65378 13.8046 7.52875C13.6796 7.40373 13.51 7.33349 13.3332 7.33349H4.27602L7.13798 4.47153C7.26298 4.34651 7.3332 4.17696 7.3332 4.00017C7.3332 3.82338 7.26298 3.65383 7.13798 3.52881C7.01298 3.40378 6.84341 3.33362 6.66661 3.33359Z" fill="#171717"/>
</svg>
