<svg width="16" height="16" viewBox="0 0 16 16" fill="none" xmlns="http://www.w3.org/2000/svg">
<path d="M9.33326 3.3335C9.15646 3.33352 8.98692 3.40378 8.86191 3.52881C8.73691 3.65383 8.66669 3.82338 8.66669 4.00017C8.66669 4.17696 8.73691 4.34651 8.86191 4.47153L11.7239 7.33349H2.66666C2.48985 7.33349 2.32028 7.40373 2.19526 7.52875C2.07024 7.65378 2 7.82334 2 8.00015C2 8.17696 2.07024 8.34653 2.19526 8.47155C2.32028 8.59657 2.48985 8.66681 2.66666 8.66681H11.7239L8.86191 11.5288C8.73691 11.6538 8.66669 11.8233 8.66669 12.0001C8.66669 12.1769 8.73691 12.3465 8.86191 12.4715C8.98693 12.5965 9.15648 12.6667 9.33327 12.6667C9.51007 12.6667 9.67962 12.5965 9.80464 12.4715L13.8046 8.47154C13.8875 8.38906 13.9472 8.28623 13.9778 8.17338C13.9814 8.13353 13.9814 8.09343 13.9778 8.05358C13.9859 8.03612 13.9933 8.01831 13.9999 8.0002C13.9957 7.96275 13.9883 7.92572 13.9778 7.88952C13.974 7.85744 13.9679 7.82567 13.9595 7.79447C13.9293 7.69506 13.8762 7.6041 13.8046 7.52885L9.80464 3.52889C9.67964 3.40386 9.51006 3.33352 9.33326 3.3335Z" fill="#171717"/>
</svg>
