<svg width="21" height="20" viewBox="0 0 21 20" fill="none" xmlns="http://www.w3.org/2000/svg">
<path d="M5.00035 1.66784C4.0672 1.66784 3.48561 1.62443 2.8672 1.93964C2.39701 2.17927 2.01336 2.56306 1.77376 3.03338C1.45862 3.65201 1.50203 4.2337 1.50203 5.1671V10.6684C1.50203 11.6018 1.4586 12.1835 1.77376 12.8021C2.01332 13.2724 2.39691 13.6562 2.8672 13.8958C3.07948 14.004 3.37995 13.9485 3.59942 13.9886C3.34977 14.4179 3.16823 14.8891 3.16823 15.4176C3.16823 17.0185 4.48352 18.3342 6.08408 18.3342C7.68463 18.3342 8.99992 17.0185 8.99992 15.4176C8.99992 14.9662 8.87518 14.5505 8.68914 14.1676H12.6431C12.4571 14.5505 12.3323 14.9662 12.3323 15.4176C12.3323 17.0185 13.6477 18.3342 15.2482 18.3342C16.8486 18.3342 18.164 17.0185 18.164 15.4176C18.164 14.9554 18.0298 14.533 17.8353 14.1432C18.2143 14.1483 18.5403 14.1792 18.9206 13.9853C19.2339 13.8256 19.4883 13.5712 19.648 13.2578C19.8723 12.8174 19.8302 12.468 19.8302 12.0013V9.7194C19.8302 9.51566 19.8388 9.34978 19.7846 9.12371C19.7438 8.95356 19.676 8.79114 19.5845 8.64195C19.4629 8.44342 19.3397 8.33194 19.1956 8.18786L17.4773 6.46913C17.3332 6.32496 17.2216 6.20167 17.0234 6.08013C16.8744 5.98887 16.7118 5.92077 16.5417 5.87994C16.3156 5.82565 16.1499 5.83437 15.9462 5.83437H14.8316V5.16706C14.8316 4.23366 14.875 3.65192 14.5599 3.03334C14.3203 2.56292 13.9366 2.17918 13.4664 1.9396C12.8479 1.62436 12.2664 1.6678 11.3333 1.6678L5.00035 1.66784ZM5.00035 3.33448H11.3332C12.2664 3.33448 12.6155 3.37756 12.7098 3.42563C12.8666 3.50558 12.9944 3.63342 13.0743 3.79021C13.1223 3.88459 13.1654 4.23374 13.1654 5.16711V12.501H5.00034C4.06718 12.501 3.71811 12.458 3.62381 12.4099C3.46706 12.33 3.33925 12.2022 3.25933 12.0453C3.21127 11.951 3.1682 11.6018 3.1682 10.6684V5.16713C3.1682 4.23372 3.21124 3.88456 3.25933 3.79023C3.33924 3.63334 3.46696 3.50558 3.62381 3.42565C3.71817 3.37756 4.06723 3.33448 5.00035 3.33448ZM14.8318 7.5011H15.9464C16.1501 7.5011 16.1874 7.50935 16.153 7.5011C16.1229 7.48264 16.1554 7.50351 16.2995 7.64758L18.0177 9.36631C18.1618 9.51039 18.1828 9.54316 18.1642 9.51279C18.1559 9.47854 18.1642 9.51571 18.1642 9.7195V12.0014C18.1642 12.4681 18.1214 12.5849 18.1642 12.5011C18.248 12.4583 18.1313 12.5011 17.6646 12.5011H14.8318V7.5011ZM6.08422 14.1677C6.78424 14.1677 7.33387 14.7175 7.33387 15.4177C7.33387 16.1179 6.78424 16.6677 6.08422 16.6677C5.3842 16.6677 4.83457 16.1179 4.83457 15.4177C4.83457 14.7175 5.3842 14.1677 6.08422 14.1677ZM15.2483 14.1677C15.9483 14.1677 16.498 14.7175 16.498 15.4177C16.498 16.1179 15.9483 16.6677 15.2483 16.6677C14.5483 16.6677 13.9987 16.1179 13.9987 15.4177C13.9987 14.7175 14.5483 14.1677 15.2483 14.1677Z" fill="#16A34A"/>
</svg>
