<svg width="24" height="24" viewBox="0 0 24 24" fill="none" xmlns="http://www.w3.org/2000/svg">
  <path
          d="M7.80226 1.00065C6.12208 1.00065 5.14139 0.94895 4.18511 1.4362C3.43258 1.81963 2.82052 2.4317 2.43713 3.18418C1.94989 4.14044 2.00158 5.12115 2.00158 6.80133V17.1992C2.00158 18.8794 1.94994 19.8601 2.43713 20.8164C2.82056 21.5689 3.43264 22.1809 4.18511 22.5643C5.14137 23.0516 6.12208 22.9999 7.80226 22.9999H10.5014C10.7666 22.9999 11.021 22.8945 11.2085 22.707C11.3961 22.5195 11.5014 22.2651 11.5014 21.9999C11.5014 21.7347 11.3961 21.4803 11.2085 21.2928C11.021 21.1053 10.7666 20.9999 10.5014 20.9999H7.80226C6.12208 20.9999 5.42049 20.9479 5.0933 20.7812C4.71685 20.5894 4.41205 20.2845 4.22026 19.9081C4.05349 19.5808 4.00151 18.8793 4.00151 17.1992V6.80128C4.00151 5.1211 4.05355 4.41951 4.22026 4.09231C4.41205 3.71588 4.71686 3.41108 5.0933 3.21928C5.42047 3.05257 6.12208 3.00053 7.80226 3.00053H14.2006C15.8808 3.00053 16.5823 3.05251 16.9095 3.21928C17.286 3.41107 17.5908 3.71587 17.7826 4.09231C17.9493 4.41948 18.0013 5.1211 18.0013 6.80128V10.5004C18.0013 10.7656 18.1067 11.02 18.2942 11.2075C18.4818 11.3951 18.7361 11.5004 19.0013 11.5004C19.2665 11.5004 19.5209 11.3951 19.7084 11.2075C19.896 11.02 20.0013 10.7656 20.0013 10.5004V6.80128C20.0013 5.1211 20.053 4.14041 19.5658 3.18413C19.1824 2.43161 18.5703 1.81954 17.8178 1.43615C16.8615 0.948964 15.8808 1.0006 14.2006 1.0006L7.80226 1.00065ZM7.00149 6.00059C6.73628 6.00059 6.48193 6.10595 6.29439 6.29348C6.10686 6.48101 6.0015 6.73536 6.0015 7.00058C6.0015 7.26579 6.10686 7.52014 6.29439 7.70768C6.48193 7.89521 6.73628 8.00057 7.00149 8.00057H15.0014C15.2666 8.00057 15.521 7.89521 15.7085 7.70768C15.896 7.52014 16.0014 7.26579 16.0014 7.00058C16.0014 6.73536 15.896 6.48101 15.7085 6.29348C15.521 6.10595 15.2666 6.00059 15.0014 6.00059H7.00149ZM7.00149 10.0005C6.73628 10.0005 6.48193 10.1059 6.29439 10.2934C6.10686 10.481 6.0015 10.7353 6.0015 11.0005C6.0015 11.2657 6.10686 11.5201 6.29439 11.7076C6.48193 11.8952 6.73628 12.0005 7.00149 12.0005H13.0014C13.2666 12.0005 13.521 11.8952 13.7085 11.7076C13.896 11.5201 14.0014 11.2657 14.0014 11.0005C14.0014 10.7353 13.896 10.481 13.7085 10.2934C13.521 10.1059 13.2666 10.0005 13.0014 10.0005H7.00149ZM17.0014 13.5005C14.528 13.5005 12.5014 15.5271 12.5014 18.0004C12.5014 20.4738 14.528 22.5004 17.0014 22.5004C17.8735 22.5004 18.6435 22.1831 19.3353 21.7484L20.2943 22.7074C20.4818 22.8949 20.7362 23.0002 21.0013 23.0002C21.2665 23.0002 21.5209 22.8949 21.7084 22.7074C21.8959 22.5199 22.0012 22.2656 22.0012 22.0004C22.0012 21.7352 21.8959 21.4809 21.7084 21.2933L20.7494 20.3344C21.1841 19.6426 21.5014 18.8726 21.5014 18.0004C21.5014 15.527 19.4747 13.5005 17.0014 13.5005ZM7.00149 14.0005C6.73628 14.0005 6.48193 14.1058 6.29439 14.2934C6.10686 14.4809 6.0015 14.7353 6.0015 15.0005C6.0015 15.2657 6.10686 15.52 6.29439 15.7076C6.48193 15.8951 6.73628 16.0005 7.00149 16.0005H9.00147C9.26668 16.0005 9.52103 15.8951 9.70856 15.7076C9.8961 15.52 10.0015 15.2657 10.0015 15.0005C10.0015 14.7353 9.8961 14.4809 9.70856 14.2934C9.52103 14.1058 9.26668 14.0005 9.00147 14.0005H7.00149ZM17.0014 15.5005C18.3939 15.5005 19.5013 16.6079 19.5013 18.0004C19.5013 19.393 18.3939 20.5004 17.0014 20.5004C15.6088 20.5004 14.5014 19.393 14.5014 18.0004C14.5014 16.6079 15.6088 15.5005 17.0014 15.5005Z"
          fill="#737373"
  />
</svg>