<svg width="16" height="16" viewBox="0 0 16 16" fill="none" xmlns="http://www.w3.org/2000/svg">
<path d="M7.99967 1.33301C7.82286 1.33301 7.65329 1.40324 7.52827 1.52827C7.40325 1.65329 7.33301 1.82286 7.33301 1.99967V8.39019L5.1377 6.19488C5.01268 6.06988 4.84313 5.99966 4.66634 5.99966C4.48955 5.99966 4.32 6.06988 4.19498 6.19488C4.06998 6.3199 3.99976 6.48945 3.99976 6.66624C3.99976 6.84303 4.06998 7.01258 4.19498 7.1376L7.52827 10.4709C7.65329 10.5959 7.82284 10.6661 7.99963 10.6661C8.17642 10.6661 8.34598 10.5959 8.47099 10.4709L11.8043 7.1376C11.9293 7.01258 11.9995 6.84303 11.9995 6.66624C11.9995 6.48945 11.9293 6.3199 11.8043 6.19488C11.6793 6.06988 11.5097 5.99966 11.3329 5.99966C11.1561 5.99966 10.9866 6.06988 10.8616 6.19488L8.66626 8.39019V1.99967C8.66626 1.82286 8.59602 1.65329 8.471 1.52827C8.34598 1.40324 8.17648 1.33301 7.99967 1.33301ZM1.99974 9.33291C1.82293 9.33291 1.65337 9.40314 1.52834 9.52817C1.40332 9.65319 1.33308 9.82276 1.33308 9.99957V10.799C1.33308 11.9191 1.29865 12.5729 1.62345 13.2105C1.87907 13.7122 2.28712 14.1202 2.78877 14.3758C3.42628 14.7006 4.08008 14.6661 5.2002 14.6661H10.7991C11.9192 14.6661 12.573 14.7006 13.2105 14.3758C13.7122 14.1202 14.1202 13.7121 14.3758 13.2105C14.7006 12.5729 14.6662 11.9191 14.6662 10.799V9.99957C14.6662 9.82276 14.5959 9.65319 14.4709 9.52817C14.3459 9.40314 14.1763 9.33291 13.9995 9.33291C13.8227 9.33291 13.6532 9.40314 13.5281 9.52817C13.4031 9.65319 13.3329 9.82276 13.3329 9.99957V10.799C13.3329 11.9191 13.2982 12.3868 13.187 12.605C13.0592 12.856 12.856 13.0592 12.605 13.187C12.3868 13.2982 11.9192 13.3329 10.799 13.3329H5.20017C4.08005 13.3329 3.61232 13.2982 3.39419 13.187C3.14323 13.0592 2.94003 12.856 2.81217 12.605C2.70099 12.3868 2.66633 11.9191 2.66633 10.799V9.99957C2.66633 9.82276 2.5961 9.65319 2.47107 9.52817C2.34605 9.40314 2.17655 9.33291 1.99974 9.33291Z" fill="#EA580C"/>
</svg>
