<svg width="17" height="18" viewBox="0 0 17 18" fill="none" xmlns="http://www.w3.org/2000/svg">
<path fill-rule="evenodd" clip-rule="evenodd" d="M8.49984 2.33334C4.81794 2.33334 1.83317 5.31811 1.83317 9.00001C1.83317 12.6819 4.81794 15.6667 8.49984 15.6667C12.1817 15.6667 15.1665 12.6819 15.1665 9.00001C15.1665 5.31811 12.1817 2.33334 8.49984 2.33334ZM0.166504 9.00001C0.166504 4.39763 3.89746 0.666672 8.49984 0.666672C13.1022 0.666672 16.8332 4.39763 16.8332 9.00001C16.8332 13.6024 13.1022 17.3333 8.49984 17.3333C3.89746 17.3333 0.166504 13.6024 0.166504 9.00001Z" fill="#DC2626"/>
<path fill-rule="evenodd" clip-rule="evenodd" d="M8.49984 4.83334C8.96008 4.83334 9.33317 5.20643 9.33317 5.66667V9.00001C9.33317 9.46024 8.96008 9.83334 8.49984 9.83334C8.0396 9.83334 7.6665 9.46024 7.6665 9.00001V5.66667C7.6665 5.20643 8.0396 4.83334 8.49984 4.83334Z" fill="#DC2626"/>
<path d="M9.33317 12.3333C9.33317 12.7936 8.96008 13.1667 8.49984 13.1667C8.0396 13.1667 7.6665 12.7936 7.6665 12.3333C7.6665 11.8731 8.0396 11.5 8.49984 11.5C8.96008 11.5 9.33317 11.8731 9.33317 12.3333Z" fill="#DC2626"/>
</svg>
