<svg width="16" height="16" viewBox="0 0 16 16" fill="none" xmlns="http://www.w3.org/2000/svg">
<path d="M2.40197 1.33585C2.02873 1.33585 1.74929 1.30179 1.39712 1.48335C1.14641 1.61261 0.943031 1.81839 0.815281 2.07207C0.635836 2.42841 0.669498 2.71115 0.669498 3.0888V3.54053C0.669498 3.72179 0.661994 3.86943 0.713753 4.06866C0.752575 4.21761 0.816578 4.35901 0.902489 4.48615C1.01738 4.65619 1.13158 4.74674 1.26695 4.86546L5.52983 8.60319C5.6651 8.72178 5.68538 8.75036 5.6678 8.72435C5.65984 8.69373 5.6678 8.72746 5.6678 8.90874V13.3511C5.6678 13.618 5.60043 13.8516 5.83441 14.2085C5.97987 14.4306 6.20685 14.5863 6.4644 14.6404C6.87852 14.7276 7.06813 14.5776 7.31304 14.4784L9.5792 13.5605C9.69985 13.5116 9.83628 13.474 10.0048 13.3195C10.1228 13.2111 10.2147 13.0752 10.2704 12.9244C10.35 12.7081 10.3328 12.5663 10.3328 12.4344V8.90878C10.3328 8.72752 10.3408 8.69391 10.3328 8.72439C10.3151 8.75059 10.3355 8.72183 10.4708 8.60323L14.7337 4.8655C14.869 4.74682 14.9832 4.65642 15.0982 4.48619C15.1842 4.35875 15.2481 4.21765 15.2869 4.0687C15.2869 4.06826 15.2869 4.06782 15.2869 4.06738C15.3385 3.86829 15.3312 3.72183 15.3312 3.54058V3.08884C15.3312 2.71119 15.3648 2.42845 15.1854 2.07211C15.0577 1.81862 14.8544 1.61269 14.6035 1.48339C14.2514 1.30183 13.9719 1.33589 13.5987 1.33589L2.40197 1.33585ZM2.00237 2.68448C1.9353 2.71905 2.02873 2.68448 2.40197 2.68448H13.5988C13.9721 2.68448 14.0655 2.71906 13.9984 2.68448C13.9642 2.61661 13.9984 2.71115 13.9984 3.0888V3.54054C13.9984 3.7218 13.9905 3.75548 13.9984 3.72493C14.0162 3.69856 13.9958 3.72734 13.8604 3.84609L9.59756 7.58382C9.46216 7.70255 9.34798 7.79317 9.2331 7.96313C9.14718 8.09044 9.08319 8.23171 9.04437 8.38062C9.04437 8.38107 9.04437 8.38152 9.04437 8.38197C8.99274 8.581 9.00011 8.72749 9.00011 8.90875V12.3436L7.00079 13.1522V8.90875C7.00079 8.72749 7.00828 8.57983 6.95654 8.38062C6.91774 8.23127 6.85379 8.09047 6.7678 7.96313C6.65301 7.79336 6.53881 7.70259 6.40334 7.58382L2.14046 3.84609C2.00509 3.72738 1.9848 3.69876 2.00249 3.72493C2.01047 3.75562 2.00249 3.7218 2.00249 3.54054V3.0888C2.00249 2.71115 2.03654 2.61662 2.00237 2.68448Z" fill="#171717"/>
</svg>
