<svg width="16" height="16" viewBox="0 0 16 16" fill="none" xmlns="http://www.w3.org/2000/svg">
<path d="M2.40197 1.33603C2.02873 1.33603 1.74929 1.30197 1.39712 1.48354C1.14641 1.6128 0.943031 1.81858 0.815281 2.07225C0.635836 2.4286 0.669498 2.71134 0.669498 3.08898V3.54072C0.669498 3.72197 0.661994 3.86961 0.713753 4.06884C0.752575 4.21779 0.816578 4.3592 0.902489 4.48634C1.01738 4.65637 1.13158 4.74693 1.26695 4.86564L5.52983 8.60337C5.6651 8.72196 5.68538 8.75054 5.6678 8.72454C5.65984 8.69391 5.6678 8.72764 5.6678 8.90892V13.3512C5.6678 13.6181 5.60043 13.8517 5.83441 14.2086C5.97987 14.4308 6.20685 14.5865 6.4644 14.6406C6.87852 14.7278 7.06813 14.5778 7.31304 14.4786L9.5792 13.5607C9.69985 13.5118 9.83628 13.4742 10.0048 13.3197C10.1228 13.2112 10.2147 13.0754 10.2704 12.9246C10.35 12.7082 10.3328 12.5664 10.3328 12.4346V8.90896C10.3328 8.72771 10.3408 8.69409 10.3328 8.72458C10.3151 8.75078 10.3355 8.72202 10.4708 8.60341L14.7337 4.86568C14.869 4.74701 14.9832 4.6566 15.0982 4.48638C15.1842 4.35893 15.2481 4.21783 15.2869 4.06888C15.2869 4.06844 15.2869 4.06801 15.2869 4.06757C15.3385 3.86847 15.3312 3.72201 15.3312 3.54076V3.08902C15.3312 2.71137 15.3648 2.42864 15.1854 2.07229C15.0577 1.8188 14.8544 1.61287 14.6035 1.48358C14.2514 1.30201 13.9719 1.33607 13.5987 1.33607L2.40197 1.33603ZM2.00237 2.68466C1.9353 2.71924 2.02873 2.68466 2.40197 2.68466H13.5988C13.9721 2.68466 14.0655 2.71924 13.9984 2.68466C13.9642 2.61679 13.9984 2.71134 13.9984 3.08899V3.54072C13.9984 3.72198 13.9905 3.75566 13.9984 3.72511C14.0162 3.69874 13.9958 3.72752 13.8604 3.84628L9.59756 7.58401C9.46216 7.70273 9.34798 7.79335 9.2331 7.96331C9.14718 8.09062 9.08319 8.23189 9.04437 8.38081C9.04437 8.38125 9.04437 8.3817 9.04437 8.38215C8.99274 8.58118 9.00011 8.72767 9.00011 8.90893V12.3438L7.00079 13.1524V8.90893C7.00079 8.72767 7.00828 8.58001 6.95654 8.38081C6.91774 8.23146 6.85379 8.09065 6.7678 7.96331C6.65301 7.79354 6.53881 7.70277 6.40334 7.58401L2.14046 3.84628C2.00509 3.72756 1.9848 3.69894 2.00249 3.72511C2.01047 3.75581 2.00249 3.72198 2.00249 3.54072V3.08899C2.00249 2.71134 2.03654 2.6168 2.00237 2.68466Z" fill="#171717"/>
</svg>
