<svg width="21" height="20" viewBox="0 0 21 20" fill="none" xmlns="http://www.w3.org/2000/svg">
<path d="M2.90108 1.66677C2.67717 1.66681 2.46244 1.75462 2.30414 1.91091C2.14583 2.06718 2.0569 2.27912 2.0569 2.50011C2.0569 2.7211 2.14583 2.93304 2.30414 3.08931L4.81886 5.57136C3.32252 6.78627 2.21101 8.15991 1.69895 8.95999C1.58342 9.14049 1.4475 9.35391 1.38399 9.6273C1.31659 9.9174 1.31674 10.0828 1.38399 10.3727C1.44734 10.6455 1.58234 10.8603 1.69729 11.04C2.70833 12.6202 5.6929 16.6666 10.4999 16.6666C12.1571 16.6666 13.5685 16.1183 14.7906 15.4134L17.5015 18.0891C17.6598 18.2454 17.8745 18.3331 18.0984 18.3331C18.3223 18.3331 18.5371 18.2454 18.6954 18.0891C18.8537 17.9328 18.9426 17.7209 18.9426 17.4999C18.9426 17.2789 18.8537 17.067 18.6954 16.9107L3.49817 1.9109C3.33986 1.75462 3.12498 1.66681 2.90108 1.66677ZM10.4997 3.33342C10.0931 3.33342 9.69712 3.36379 9.31405 3.41968C9.09284 3.45225 8.89376 3.57012 8.76051 3.74741C8.62726 3.92471 8.57073 4.14694 8.60333 4.36534C8.63593 4.58397 8.75518 4.78087 8.93486 4.91273C9.11453 5.04458 9.33991 5.1006 9.56143 5.06845C9.86477 5.0242 10.1772 5.0001 10.4997 5.0001C14.3131 5.0001 16.9848 8.46047 17.8741 9.85028C17.9891 10.0301 17.9687 9.99562 17.9697 10C17.9688 10.0039 17.9898 9.97067 17.8741 10.1514C17.6369 10.5217 17.2706 11.0485 16.789 11.6162C16.6454 11.7857 16.5758 12.0045 16.5956 12.2245C16.6154 12.4446 16.7229 12.6478 16.8945 12.7897C17.0662 12.9314 17.2879 13.0001 17.5108 12.9805C17.7338 12.961 17.9397 12.8549 18.0834 12.6855C18.6246 12.0476 19.0311 11.4622 19.3004 11.0416C19.4164 10.8605 19.5518 10.646 19.6154 10.3727C19.6159 10.3727 19.6165 10.3727 19.6171 10.3727C19.6842 10.0831 19.6831 9.91824 19.6154 9.62726H19.6171C19.5537 9.35434 19.417 9.13965 19.3021 8.95996C18.291 7.37989 15.3067 3.33342 10.4997 3.33342ZM6.00612 6.74321L7.63206 8.34802C7.33778 8.84367 7.12251 9.38834 7.12251 10C7.12251 11.8311 8.6446 13.3333 10.4997 13.3333C11.1194 13.3333 11.6712 13.1208 12.1734 12.8304L13.5454 14.1845C12.6313 14.647 11.6426 14.9999 10.4997 14.9999C6.68627 14.9999 4.01459 11.5396 3.1253 10.1497C3.01028 9.96995 3.03067 10.0044 3.02966 10C3.03054 9.99626 3.00978 10.0308 3.1253 9.85027C3.59309 9.11938 4.64116 7.81578 6.00612 6.74321ZM8.95616 9.65492L10.8492 11.5234C10.722 11.5535 10.6377 11.6666 10.4996 11.6666C9.55707 11.6666 8.81106 10.9304 8.81106 9.99998C8.81106 9.86374 8.92564 9.78048 8.95616 9.65492Z" fill="#404040"/>
</svg>
