<svg width="20" height="20" viewBox="0 0 20 20" fill="none" xmlns="http://www.w3.org/2000/svg">
<path d="M10.0001 1.66675C7.47869 1.66675 5.4168 3.72864 5.4168 6.25002C5.4168 8.77141 7.47869 10.8333 10.0001 10.8333C12.5215 10.8333 14.5833 8.77141 14.5833 6.25002C14.5833 3.72864 12.5215 1.66675 10.0001 1.66675ZM10.0001 3.33339C11.6208 3.33339 12.9167 4.62938 12.9167 6.25002C12.9167 7.87067 11.6208 9.16665 10.0001 9.16665C8.37943 9.16665 7.08344 7.87067 7.08344 6.25002C7.08344 4.62938 8.37943 3.33339 10.0001 3.33339ZM7.91676 12.0833C6.75378 12.0833 6.11212 12.0638 5.45746 12.2623C4.12673 12.666 3.08282 13.7099 2.67916 15.0406C2.48058 15.6952 2.50013 16.3369 2.50013 17.4999C2.50013 17.7209 2.58793 17.9329 2.74421 18.0892C2.90049 18.2454 3.11244 18.3332 3.33346 18.3332C3.55447 18.3332 3.76643 18.2454 3.9227 18.0892C4.07898 17.9329 4.16678 17.7209 4.16678 17.4999C4.16678 16.3369 4.18571 15.8157 4.2742 15.524C4.51686 14.7241 5.14094 14.1 5.94085 13.8574C6.23254 13.7689 6.75379 13.75 7.91674 13.75H12.0834C13.2463 13.75 13.7675 13.7689 14.0592 13.8574C14.8591 14.1 15.4832 14.7241 15.7259 15.524C15.8144 15.8158 15.8333 16.3369 15.8333 17.4999C15.8333 17.7209 15.9211 17.9329 16.0774 18.0892C16.2337 18.2454 16.4456 18.3332 16.6666 18.3332C16.8876 18.3332 17.0996 18.2454 17.2559 18.0892C17.4122 17.9329 17.5 17.7209 17.5 17.4999C17.5 16.3369 17.5195 15.6952 17.3209 15.0406C16.9172 13.7099 15.8734 12.666 14.5426 12.2623C13.888 12.0638 13.2463 12.0833 12.0833 12.0833H7.91676Z" fill="#0899B2"/>
</svg>
