<svg width="20" height="20" viewBox="0 0 20 20" fill="none" xmlns="http://www.w3.org/2000/svg">
<path d="M6.50123 1.66636C5.10108 1.66636 4.28384 1.62327 3.48694 2.02931C2.85983 2.34884 2.34979 2.85889 2.03029 3.48596C1.62425 4.28285 1.66734 5.10011 1.66734 6.50026V13.4988C1.66734 14.899 1.6243 15.7162 2.03029 16.5131C2.34982 17.1403 2.85988 17.6503 3.48694 17.9698C4.28383 18.3758 5.10108 18.3327 6.50123 18.3327H7.50056C7.72157 18.3327 7.93352 18.2449 8.0898 18.0887C8.24608 17.9324 8.33388 17.7204 8.33388 17.4994C8.33388 17.2784 8.24608 17.0664 8.0898 16.9102C7.93352 16.7539 7.72157 16.6661 7.50056 16.6661H6.50123C5.10108 16.6661 4.51643 16.6227 4.24376 16.4838C3.93006 16.324 3.67606 16.07 3.51623 15.7563C3.37726 15.4835 3.33394 14.8989 3.33394 13.4988V6.50022C3.33394 5.10007 3.37731 4.51541 3.51623 4.24274C3.67606 3.92905 3.93007 3.67505 4.24376 3.51521C4.51641 3.37629 5.10108 3.33292 6.50123 3.33292H7.50056C7.72157 3.33292 7.93352 3.24513 8.0898 3.08885C8.24608 2.93257 8.33388 2.72061 8.33388 2.4996C8.33388 2.27859 8.24608 2.06663 8.0898 1.91035C7.93352 1.75407 7.72157 1.66628 7.50056 1.66628L6.50123 1.66636ZM12.7447 5.24381C12.5884 5.40009 12.5006 5.61203 12.5006 5.83302C12.5006 6.054 12.5884 6.26594 12.7447 6.42222L15.4888 9.16635H7.50064C7.27963 9.16635 7.06767 9.25415 6.91139 9.41042C6.75511 9.5667 6.66732 9.77866 6.66732 9.99967C6.66732 10.2207 6.75511 10.4326 6.91139 10.5889C7.06767 10.7452 7.27963 10.833 7.50064 10.833H15.4888L12.7447 13.5771C12.5884 13.7334 12.5006 13.9453 12.5006 14.1663C12.5006 14.3873 12.5884 14.5993 12.7447 14.7555C12.9009 14.9118 13.1129 14.9996 13.3339 14.9996C13.5548 14.9996 13.7668 14.9118 13.9231 14.7555L18.0897 10.5889C18.2205 10.4453 18.2971 10.2605 18.3061 10.0665C18.3163 10.0446 18.3256 10.0224 18.3338 9.99973C18.3285 9.95292 18.3193 9.90664 18.3061 9.86138C18.3074 9.83536 18.3074 9.80929 18.3061 9.78326C18.2989 9.76949 18.2913 9.75592 18.2834 9.74257C18.2456 9.61831 18.1792 9.50461 18.0897 9.41054L13.9231 5.24392C13.7668 5.08768 13.5549 4.9999 13.3339 4.9999C13.1129 4.9999 12.9009 5.08757 12.7447 5.24381Z" fill="#737373"/>
</svg>
