<svg width="20" height="20" viewBox="0 0 20 20" fill="none" xmlns="http://www.w3.org/2000/svg">
<path d="M2.50032 4.16675C2.2793 4.16675 2.06735 4.25454 1.91107 4.41082C1.75479 4.5671 1.66699 4.77906 1.66699 5.00007C1.66699 5.22108 1.75479 5.43304 1.91107 5.58932C2.06735 5.7456 2.2793 5.83339 2.50032 5.83339H17.5001C17.7211 5.83339 17.9331 5.7456 18.0894 5.58932C18.2457 5.43304 18.3335 5.22108 18.3335 5.00007C18.3335 4.77906 18.2457 4.5671 18.0894 4.41082C17.9331 4.25454 17.7211 4.16675 17.5001 4.16675H2.50032ZM2.50032 9.16669C2.2793 9.16669 2.06735 9.25448 1.91107 9.41076C1.75479 9.56704 1.66699 9.779 1.66699 10C1.66699 10.221 1.75479 10.433 1.91107 10.5893C2.06735 10.7455 2.2793 10.8333 2.50032 10.8333H17.5001C17.7211 10.8333 17.9331 10.7455 18.0894 10.5893C18.2457 10.433 18.3335 10.221 18.3335 10C18.3335 9.779 18.2457 9.56704 18.0894 9.41076C17.9331 9.25448 17.7211 9.16669 17.5001 9.16669H2.50032ZM2.50032 14.1666C2.2793 14.1666 2.06735 14.2544 1.91107 14.4107C1.75479 14.567 1.66699 14.7789 1.66699 14.9999C1.66699 15.221 1.75479 15.4329 1.91107 15.5892C2.06735 15.7455 2.2793 15.8333 2.50032 15.8333H17.5001C17.7211 15.8333 17.9331 15.7455 18.0894 15.5892C18.2457 15.4329 18.3335 15.221 18.3335 14.9999C18.3335 14.7789 18.2457 14.567 18.0894 14.4107C17.9331 14.2544 17.7211 14.1666 17.5001 14.1666H2.50032Z" fill="white"/>
</svg>
