<svg width="16" height="16" viewBox="0 0 16 16" fill="none" xmlns="http://www.w3.org/2000/svg">
<path d="M7.99977 2.66602C7.82296 2.66602 7.65339 2.73625 7.52837 2.86128C7.40335 2.9863 7.33311 3.15587 7.33311 3.33267V7.33262H3.33316C3.15635 7.33262 2.98679 7.40286 2.86176 7.52788C2.73674 7.65291 2.6665 7.82247 2.6665 7.99928C2.6665 8.17609 2.73674 8.34566 2.86176 8.47068C2.98679 8.5957 3.15635 8.66594 3.33316 8.66594H7.33311V12.6659C7.33311 12.8427 7.40335 13.0123 7.52837 13.1373C7.65339 13.2623 7.82296 13.3325 7.99977 13.3325C8.17658 13.3325 8.34615 13.2623 8.47117 13.1373C8.59619 13.0123 8.66643 12.8427 8.66643 12.6659V8.66594H12.6664C12.8432 8.66594 13.0128 8.5957 13.1378 8.47068C13.2628 8.34566 13.333 8.17609 13.333 7.99928C13.333 7.82247 13.2628 7.65291 13.1378 7.52788C13.0128 7.40286 12.8432 7.33262 12.6664 7.33262H8.66643V3.33267C8.66643 3.15587 8.59619 2.9863 8.47117 2.86128C8.34615 2.73625 8.17658 2.66602 7.99977 2.66602Z" fill="#171717"/>
</svg>
