<svg width="21" height="20" viewBox="0 0 21 20" fill="none" xmlns="http://www.w3.org/2000/svg">
<path d="M10.3332 0.833435C5.28055 0.833435 1.16669 4.9473 1.16669 9.99999C1.16669 15.0526 5.28055 19.1665 10.3332 19.1665C15.3858 19.1665 19.4998 15.0526 19.4998 9.99999C19.4998 4.9473 15.3858 0.833435 10.3332 0.833435ZM10.3332 2.50008C14.4852 2.50008 17.8331 5.84804 17.8331 9.99999C17.8331 14.1519 14.4851 17.4999 10.3332 17.4999C6.18129 17.4999 2.83333 14.1519 2.83333 9.99999C2.83333 5.84804 6.18129 2.50008 10.3332 2.50008ZM13.494 6.91086L9.08325 11.3216L7.17244 9.41083C7.01617 9.25458 6.80423 9.1668 6.58324 9.1668C6.36226 9.1668 6.15032 9.25458 5.99404 9.41083C5.83779 9.5671 5.75002 9.77904 5.75002 10C5.75002 10.221 5.83779 10.433 5.99404 10.5892L8.49401 13.0892C8.6503 13.2454 8.86223 13.3332 9.08321 13.3332C9.30419 13.3332 9.51613 13.2454 9.67241 13.0892L14.6723 8.08926C14.8286 7.93299 14.9164 7.72105 14.9164 7.50006C14.9164 7.27907 14.8286 7.06713 14.6723 6.91086C14.5161 6.75461 14.3041 6.66683 14.0831 6.66683C13.8622 6.66683 13.6503 6.75461 13.494 6.91086Z" fill="#D19500"/>
</svg>
