<svg width="14" height="14" viewBox="0 0 14 14" fill="none" xmlns="http://www.w3.org/2000/svg">
<path d="M6.33318 0.333496C3.02742 0.333496 0.333252 3.02766 0.333252 6.33342C0.333252 9.63918 3.02742 12.3333 6.33318 12.3333C7.74229 12.3333 8.98468 11.7709 10.0102 10.9532L12.5284 13.4713C12.6534 13.5963 12.8229 13.6666 12.9997 13.6666C13.1765 13.6666 13.3461 13.5963 13.4711 13.4713C13.5961 13.3463 13.6663 13.1768 13.6663 13C13.6663 12.8232 13.5961 12.6536 13.4711 12.5286L10.9529 10.0104C11.7706 8.98485 12.3331 7.74247 12.3331 6.33342C12.3331 3.02766 9.63894 0.333496 6.33318 0.333496ZM6.33318 1.66681C8.91841 1.66681 10.9998 3.74825 10.9998 6.33342C10.9998 7.6226 10.4813 8.78599 9.64174 9.62898C9.6374 9.62894 9.63306 9.62894 9.62872 9.62898C9.62867 9.63332 9.62867 9.63766 9.62872 9.642C8.78573 10.4816 7.62241 11 6.33316 11C3.74799 11 1.66655 8.91868 1.66655 6.33344C1.66655 3.74827 3.74801 1.66681 6.33318 1.66681Z" fill="#404040"/>
</svg>
