<svg width="21" height="20" viewBox="0 0 21 20" fill="none" xmlns="http://www.w3.org/2000/svg">
<path d="M10.4994 3.3335C5.69285 3.3335 2.70846 7.37994 1.69731 8.96009V8.96176C1.58238 9.14144 1.44737 9.35463 1.38402 9.62744C1.31665 9.91753 1.31665 10.0828 1.38402 10.3729C1.44738 10.6457 1.58238 10.8589 1.69731 11.0386V11.0402C2.70829 12.6203 5.69268 16.6667 10.4994 16.6667C15.3059 16.6667 18.2903 12.6203 19.3014 11.0401C19.4164 10.8604 19.5514 10.6457 19.6147 10.3728H19.6164C19.6836 10.0829 19.6836 9.91732 19.6164 9.6274H19.6147C19.5514 9.35454 19.4164 9.13979 19.3014 8.96009C18.2904 7.38003 15.306 3.3335 10.4994 3.3335ZM10.4994 5.00014C14.3125 5.00014 16.9841 8.46051 17.8733 9.85033C17.9883 10.0301 17.9679 9.99577 17.9689 10.0001C17.9679 10.0044 17.9883 9.97001 17.8733 10.1498C16.9841 11.5396 14.3125 15 10.4994 15C6.68618 15 4.01466 11.5396 3.12543 10.1498C3.01042 9.97 3.0308 10.0044 3.02979 10.0001C3.0308 9.99572 3.01042 10.0301 3.12543 9.85033C4.01466 8.46051 6.68618 5.00014 10.4994 5.00014Z" fill="#404040"/>
<path d="M10.4993 6.66678C8.64426 6.66678 7.12235 8.16902 7.12235 10.0001C7.12235 11.8311 8.64426 13.3334 10.4993 13.3334C12.3544 13.3334 13.8763 11.8311 13.8763 10.0001C13.8763 8.16902 12.3544 6.66678 10.4993 6.66678ZM10.4993 8.33343C11.4419 8.33343 12.1878 9.06968 12.1878 10.0001C12.1878 10.9305 11.4419 11.6667 10.4993 11.6667C9.55673 11.6667 8.81083 10.9305 8.81083 10.0001C8.81083 9.06968 9.55673 8.33343 10.4993 8.33343Z" fill="#404040"/>
</svg>
