<svg width="20" height="20" viewBox="0 0 20 20" fill="none" xmlns="http://www.w3.org/2000/svg">
<g clip-path="url(#clip0_13782_5279)">
<path d="M10 0.833496C4.94736 0.833496 0.833496 4.94736 0.833496 10C0.833496 15.0527 4.94736 19.1666 10 19.1666C15.0526 19.1666 19.1666 15.0527 19.1666 10C19.1666 4.94736 15.0526 0.833496 10 0.833496ZM10 2.50014C14.152 2.50014 17.5 5.8481 17.5 10C17.5 14.1519 14.1519 17.5 10 17.5C5.8481 17.5 2.50014 14.152 2.50014 10C2.50014 5.8481 5.8481 2.50014 10 2.50014ZM13.1608 6.91092L8.75006 11.3217L6.83925 9.41089C6.68298 9.25464 6.47104 9.16686 6.25005 9.16686C6.02906 9.16686 5.81713 9.25464 5.66085 9.41089C5.5046 9.56716 5.41682 9.7791 5.41682 10.0001C5.41682 10.2211 5.5046 10.433 5.66085 10.5893L8.16082 13.0893C8.31711 13.2455 8.52904 13.3333 8.75002 13.3333C8.971 13.3333 9.18294 13.2455 9.33922 13.0893L14.3392 8.08932C14.4954 7.93305 14.5832 7.72111 14.5832 7.50012C14.5832 7.27913 14.4954 7.06719 14.3392 6.91092C14.1829 6.75467 13.9709 6.66689 13.75 6.66689C13.529 6.66689 13.3171 6.75467 13.1608 6.91092Z" fill="#16A34A"/>
</g>
<defs>
<clipPath id="clip0_13782_5279">
<rect width="20" height="20" fill="white"/>
</clipPath>
</defs>
</svg>
