<svg width="20" height="20" viewBox="0 0 20 20" fill="none" xmlns="http://www.w3.org/2000/svg">
<path fill-rule="evenodd" clip-rule="evenodd" d="M10.0003 3.33334C6.31843 3.33334 3.33366 6.31811 3.33366 10C3.33366 13.6819 6.31843 16.6667 10.0003 16.6667C13.6822 16.6667 16.667 13.6819 16.667 10C16.667 6.31811 13.6822 3.33334 10.0003 3.33334ZM1.66699 10C1.66699 5.39763 5.39795 1.66667 10.0003 1.66667C14.6027 1.66667 18.3337 5.39763 18.3337 10C18.3337 14.6024 14.6027 18.3333 10.0003 18.3333C5.39795 18.3333 1.66699 14.6024 1.66699 10Z" fill="#DC2626"/>
<path fill-rule="evenodd" clip-rule="evenodd" d="M10.0003 5.83334C10.4606 5.83334 10.8337 6.20643 10.8337 6.66667V10C10.8337 10.4602 10.4606 10.8333 10.0003 10.8333C9.54009 10.8333 9.16699 10.4602 9.16699 10V6.66667C9.16699 6.20643 9.54009 5.83334 10.0003 5.83334Z" fill="#DC2626"/>
<path d="M10.8337 13.3333C10.8337 13.7936 10.4606 14.1667 10.0003 14.1667C9.54009 14.1667 9.16699 13.7936 9.16699 13.3333C9.16699 12.8731 9.54009 12.5 10.0003 12.5C10.4606 12.5 10.8337 12.8731 10.8337 13.3333Z" fill="#DC2626"/>
</svg>
