<svg width="16" height="16" viewBox="0 0 16 16" fill="none" xmlns="http://www.w3.org/2000/svg">
<path d="M5.20057 1.33345C4.08045 1.33345 3.42666 1.29899 2.78914 1.62382C2.28745 1.87944 1.87941 2.28748 1.62382 2.78914C1.29899 3.42665 1.33345 4.08045 1.33345 5.20057V10.7994C1.33345 11.9196 1.29902 12.5733 1.62382 13.2109C1.87944 13.7126 2.28749 14.1206 2.78914 14.3762C3.42665 14.701 4.08045 14.6666 5.20057 14.6666H10.7994C11.9196 14.6666 12.5733 14.701 13.2109 14.3762C13.7126 14.1206 14.1206 13.7125 14.3762 13.2109C14.701 12.5734 14.6666 11.9196 14.6666 10.7994V5.20057C14.6666 4.08045 14.701 3.42666 14.3762 2.78914C14.1206 2.28746 13.7125 1.87941 13.2109 1.62382C12.5734 1.29903 11.9196 1.33345 10.7994 1.33345H6.00003H5.20057ZM5.20057 2.66677H5.33338V13.3333H5.20057C4.08045 13.3333 3.61273 13.2986 3.39459 13.1875C3.14363 13.0596 2.94043 12.8564 2.81257 12.6054C2.70139 12.3872 2.66674 11.9196 2.66674 10.7995V5.20061C2.66674 4.08049 2.70143 3.61276 2.81257 3.39463C2.94043 3.14367 3.14364 2.94047 3.39459 2.8126C3.61271 2.70146 4.08045 2.66677 5.20057 2.66677ZM6.66669 2.66677H9.33332V13.3333H6.66669V2.66677ZM10.6666 2.66677H10.7994C11.9196 2.66677 12.3872 2.70143 12.6054 2.8126C12.8564 2.94047 13.0596 3.14366 13.1875 3.39463C13.2986 3.61274 13.3333 4.08049 13.3333 5.20061V10.7995C13.3333 11.9196 13.2986 12.3872 13.1875 12.6054C13.0596 12.8564 12.8564 13.0596 12.6054 13.1875C12.3872 13.2987 11.9196 13.3333 10.7994 13.3333H10.6666V2.66677Z" fill="#171717"/>
</svg>
