<svg width="17" height="16" viewBox="0 0 17 16" fill="none" xmlns="http://www.w3.org/2000/svg">
<path d="M8.02916 5.52866L4.02921 9.52861C3.90421 9.65363 3.83398 9.82318 3.83398 9.99997C3.83398 10.1768 3.90421 10.3463 4.02921 10.4713C4.15423 10.5963 4.32378 10.6666 4.50057 10.6666C4.67736 10.6666 4.84691 10.5963 4.97193 10.4713L8.50055 6.94271L12.0292 10.4713C12.1542 10.5963 12.3237 10.6666 12.5005 10.6666C12.6773 10.6666 12.8469 10.5963 12.9719 10.4713C13.0969 10.3463 13.1671 10.1768 13.1671 9.99997C13.1671 9.82318 13.0969 9.65363 12.9719 9.52861L8.97194 5.52866C8.84692 5.40368 8.67737 5.33347 8.50058 5.33347C8.3238 5.33347 8.15418 5.40368 8.02916 5.52866Z" fill="#2570EB"/>
</svg>
