<svg width="16" height="16" viewBox="0 0 16 16" fill="none" xmlns="http://www.w3.org/2000/svg">
<path d="M3.99958 5.33325C3.82278 5.33328 3.65323 5.40353 3.52823 5.52856C3.40323 5.65358 3.33301 5.82313 3.33301 5.99992C3.33301 6.17671 3.40323 6.34626 3.52823 6.47128L7.52818 10.4712C7.65321 10.5962 7.82276 10.6664 7.99954 10.6664C8.17632 10.6664 8.34587 10.5962 8.4709 10.4712L12.4708 6.47128C12.5958 6.34626 12.6661 6.17671 12.6661 5.99992C12.6661 5.82313 12.5958 5.65358 12.4708 5.52856C12.3458 5.40356 12.1763 5.33334 11.9995 5.33334C11.8227 5.33334 11.6531 5.40356 11.5281 5.52856L7.99951 9.05718L4.47088 5.52856C4.34588 5.40353 4.17638 5.33328 3.99958 5.33325Z" fill="#2570EB"/>
</svg>
