<svg width="20" height="20" viewBox="0 0 20 20" fill="none" xmlns="http://www.w3.org/2000/svg">
<path d="M5.0002 4.16699C4.77921 4.16703 4.56727 4.25484 4.41102 4.41113C4.25477 4.56741 4.16699 4.77934 4.16699 5.00033C4.16699 5.22132 4.25477 5.43326 4.41102 5.58953L8.8218 10.0003L4.41102 14.4111C4.25477 14.5674 4.16699 14.7793 4.16699 15.0003C4.16699 15.2213 4.25477 15.4332 4.41102 15.5895C4.56729 15.7457 4.77923 15.8335 5.00022 15.8335C5.22121 15.8335 5.43315 15.7457 5.58942 15.5895L10.0002 11.1787L14.411 15.5895C14.5673 15.7457 14.7792 15.8335 15.0002 15.8335C15.2212 15.8335 15.4331 15.7457 15.5894 15.5895C15.7456 15.4332 15.8334 15.2213 15.8334 15.0003C15.8334 14.7793 15.7456 14.5674 15.5894 14.4111L11.1786 10.0003L15.5894 5.58953C15.7456 5.43326 15.8334 5.22132 15.8334 5.00033C15.8334 4.77934 15.7456 4.56741 15.5894 4.41113C15.4331 4.25488 15.2212 4.1671 15.0002 4.1671C14.7792 4.1671 14.5673 4.25488 14.411 4.41113L10.0002 8.82191L5.58942 4.41113C5.43317 4.25484 5.2212 4.16703 5.0002 4.16699Z" fill="#404040"/>
</svg>
