<svg width="16" height="16" viewBox="0 0 16 16" fill="none" xmlns="http://www.w3.org/2000/svg">
<path d="M7.99967 1.33289C7.82286 1.33289 7.65329 1.40312 7.52827 1.52815C7.40325 1.65317 7.33301 1.82274 7.33301 1.99954V8.39006L5.1377 6.19476C5.01268 6.06976 4.84313 5.99954 4.66634 5.99954C4.48955 5.99954 4.32 6.06976 4.19498 6.19476C4.06998 6.31978 3.99976 6.48933 3.99976 6.66612C3.99976 6.84291 4.06998 7.01246 4.19498 7.13748L7.52827 10.4708C7.65329 10.5958 7.82284 10.666 7.99963 10.666C8.17642 10.666 8.34598 10.5958 8.47099 10.4708L11.8043 7.13748C11.9293 7.01246 11.9995 6.84291 11.9995 6.66612C11.9995 6.48933 11.9293 6.31978 11.8043 6.19476C11.6793 6.06976 11.5097 5.99954 11.3329 5.99954C11.1561 5.99954 10.9866 6.06976 10.8616 6.19476L8.66626 8.39006V1.99954C8.66626 1.82274 8.59602 1.65317 8.471 1.52815C8.34598 1.40312 8.17648 1.33289 7.99967 1.33289ZM1.99974 9.33279C1.82293 9.33279 1.65337 9.40302 1.52834 9.52805C1.40332 9.65307 1.33308 9.82264 1.33308 9.99944V10.7989C1.33308 11.919 1.29865 12.5728 1.62345 13.2103C1.87907 13.712 2.28712 14.1201 2.78877 14.3757C3.42628 14.7005 4.08008 14.666 5.2002 14.666H10.7991C11.9192 14.666 12.573 14.7005 13.2105 14.3757C13.7122 14.1201 14.1202 13.712 14.3758 13.2103C14.7006 12.5728 14.6662 11.919 14.6662 10.7989V9.99944C14.6662 9.82264 14.5959 9.65307 14.4709 9.52805C14.3459 9.40302 14.1763 9.33279 13.9995 9.33279C13.8227 9.33279 13.6532 9.40302 13.5281 9.52805C13.4031 9.65307 13.3329 9.82264 13.3329 9.99944V10.7989C13.3329 11.919 13.2982 12.3867 13.187 12.6049C13.0592 12.8558 12.856 13.059 12.605 13.1869C12.3868 13.2981 11.9192 13.3327 10.799 13.3327H5.20017C4.08005 13.3327 3.61232 13.298 3.39419 13.1869C3.14323 13.059 2.94003 12.8558 2.81217 12.6049C2.70099 12.3867 2.66633 11.919 2.66633 10.7989V9.99944C2.66633 9.82264 2.5961 9.65307 2.47107 9.52805C2.34605 9.40302 2.17655 9.33279 1.99974 9.33279Z" fill="#EA580C"/>
</svg>
