<svg width="20" height="20" viewBox="0 0 20 20" fill="none" xmlns="http://www.w3.org/2000/svg">
<path d="M16.0773 4.82752L7.49988 13.4049L3.92243 9.82746C3.76615 9.67121 3.55422 9.58343 3.33323 9.58343C3.11224 9.58343 2.9003 9.67121 2.74403 9.82746C2.58778 9.98374 2.5 10.1957 2.5 10.4167C2.5 10.6376 2.58778 10.8496 2.74403 11.0059L6.91064 15.1725C7.06693 15.3287 7.27886 15.4165 7.49984 15.4165C7.72082 15.4165 7.93276 15.3287 8.08904 15.1725L17.2556 6.00593C17.4118 5.84965 17.4996 5.63771 17.4996 5.41672C17.4996 5.19574 17.4118 4.9838 17.2556 4.82752C17.0993 4.67127 16.8874 4.5835 16.6664 4.5835C16.4454 4.5835 16.2336 4.67127 16.0773 4.82752Z" fill="#EA580C"/>
</svg>
