<svg width="20" height="20" viewBox="0 0 20 20" fill="none" xmlns="http://www.w3.org/2000/svg">
<path d="M6.50148 1.66673C5.10133 1.66673 4.28409 1.62364 3.48718 2.02968C2.86007 2.34921 2.35003 2.85926 2.03053 3.48633C1.6245 4.28322 1.66758 5.10047 1.66758 6.50062V13.4992C1.66758 14.8994 1.62454 15.7166 2.03053 16.5135C2.35006 17.1406 2.86012 17.6507 3.48718 17.9701C4.28407 18.3762 5.10133 18.3331 6.50148 18.3331H7.5008C7.72181 18.3331 7.93377 18.2453 8.09005 18.089C8.24633 17.9327 8.33412 17.7208 8.33412 17.4998C8.33412 17.2788 8.24633 17.0668 8.09005 16.9105C7.93377 16.7543 7.72181 16.6665 7.5008 16.6665H6.50148C5.10133 16.6665 4.51667 16.6231 4.24401 16.4842C3.9303 16.3243 3.67631 16.0703 3.51647 15.7566C3.3775 15.4839 3.33418 14.8993 3.33418 13.4992V6.50058C3.33418 5.10043 3.37755 4.51577 3.51647 4.24311C3.67631 3.92941 3.93031 3.67542 4.24401 3.51558C4.51665 3.37665 5.10133 3.33329 6.50148 3.33329H7.5008C7.72181 3.33329 7.93377 3.24549 8.09005 3.08921C8.24633 2.93294 8.33412 2.72098 8.33412 2.49997C8.33412 2.27895 8.24633 2.067 8.09005 1.91072C7.93377 1.75444 7.72181 1.66664 7.5008 1.66664L6.50148 1.66673ZM12.7449 5.24418C12.5887 5.40046 12.5009 5.61239 12.5009 5.83338C12.5009 6.05437 12.5887 6.26631 12.7449 6.42258L15.489 9.16672H7.50088C7.27987 9.16672 7.06791 9.25451 6.91163 9.41079C6.75536 9.56707 6.66756 9.77903 6.66756 10C6.66756 10.221 6.75536 10.433 6.91163 10.5893C7.06791 10.7456 7.27987 10.8334 7.50088 10.8334H15.489L12.7449 13.5775C12.5887 13.7338 12.5009 13.9457 12.5009 14.1667C12.5009 14.3877 12.5887 14.5996 12.7449 14.7559C12.9012 14.9121 13.1131 14.9999 13.3341 14.9999C13.5551 14.9999 13.767 14.9121 13.9233 14.7559L18.0899 10.5893C18.2208 10.4457 18.2973 10.2609 18.3064 10.0668C18.3166 10.045 18.3258 10.0227 18.3341 10.0001C18.3288 9.95328 18.3195 9.907 18.3064 9.86175C18.3076 9.83572 18.3076 9.80965 18.3064 9.78363C18.2992 9.76985 18.2916 9.75628 18.2836 9.74294C18.2458 9.61868 18.1795 9.50498 18.0899 9.41091L13.9233 5.24429C13.767 5.08804 13.5551 5.00026 13.3341 5.00026C13.1131 5.00026 12.9012 5.08793 12.7449 5.24418Z" fill="white"/>
</svg>
