<svg width="150" height="14" viewBox="0 0 150 14" fill="none" xmlns="http://www.w3.org/2000/svg">
<path d="M2.14671 2.13245V4.9567H4.63576C5.13024 4.9567 5.5011 4.89964 5.74834 4.78553C6.18577 4.58584 6.40448 4.1912 6.40448 3.60163C6.40448 2.96451 6.1929 2.53659 5.76974 2.31788C5.53201 2.19426 5.17541 2.13245 4.69995 2.13245H2.14671ZM7.86653 1.31228C8.09475 1.57854 8.27543 1.87332 8.40856 2.19664C8.54169 2.51995 8.60825 2.88844 8.60825 3.30209C8.60825 3.80132 8.48225 4.29343 8.23026 4.7784C7.97826 5.25862 7.56223 5.59857 6.98217 5.79827C7.46714 5.99321 7.80947 6.27135 8.00917 6.6327C8.21362 6.9893 8.31584 7.53608 8.31584 8.27305V8.97911C8.31584 9.45933 8.33486 9.78502 8.3729 9.95619C8.42995 10.2272 8.56308 10.4269 8.77229 10.5553V10.8192H6.35456C6.28799 10.5862 6.24045 10.3984 6.21192 10.2557C6.15486 9.96094 6.12396 9.65903 6.1192 9.34997L6.10494 8.3729C6.09543 7.7025 5.97181 7.25556 5.73408 7.03209C5.5011 6.80863 5.0613 6.69689 4.41467 6.69689H2.14671V10.8192H0V0.306673H5.15639C5.89336 0.320937 6.45916 0.411275 6.8538 0.577687C7.25318 0.744099 7.59076 0.988962 7.86653 1.31228Z" fill="white"/>
<path d="M11.8248 6.15486H14.9842C14.9509 5.61759 14.7869 5.21107 14.4921 4.9353C14.2021 4.65478 13.8407 4.51452 13.408 4.51452C12.9373 4.51452 12.5712 4.66191 12.3097 4.9567C12.053 5.25149 11.8913 5.65087 11.8248 6.15486ZM16.4391 4.35048C16.7434 4.81168 16.9407 5.34658 17.0311 5.95517C17.0834 6.31177 17.1048 6.82527 17.0953 7.49567H11.7748C11.8034 8.27543 12.0482 8.82221 12.5094 9.13602C12.7899 9.33096 13.1275 9.42843 13.5222 9.42843C13.9406 9.42843 14.2805 9.30956 14.542 9.07183C14.6847 8.94345 14.8107 8.76515 14.92 8.53693H16.9954C16.9431 8.99813 16.703 9.46646 16.2751 9.94193C15.6094 10.6979 14.6775 11.0759 13.4794 11.0759C12.4904 11.0759 11.6179 10.7573 10.8619 10.1202C10.106 9.4831 9.72797 8.4466 9.72797 7.0107C9.72797 5.66514 10.0679 4.63338 10.7478 3.91544C11.4325 3.19749 12.3192 2.83851 13.408 2.83851C14.0547 2.83851 14.6371 2.95976 15.1554 3.20224C15.6736 3.44473 16.1015 3.82747 16.4391 4.35048Z" fill="white"/>
<path d="M23.1146 5.83393C23.0766 5.5439 22.9791 5.28239 22.8222 5.04941C22.594 4.73561 22.2398 4.57871 21.7596 4.57871C21.0749 4.57871 20.6066 4.91866 20.3546 5.59857C20.2214 5.95993 20.1549 6.44014 20.1549 7.03923C20.1549 7.60978 20.2214 8.0686 20.3546 8.41569C20.597 9.06232 21.0535 9.38563 21.7239 9.38563C22.1994 9.38563 22.5369 9.25726 22.7366 9.00051C22.9363 8.74376 23.0576 8.41094 23.1004 8.00204H25.1758C25.1282 8.62014 24.9047 9.20496 24.5053 9.7565C23.8682 10.6456 22.9244 11.0902 21.674 11.0902C20.4235 11.0902 19.5035 10.7193 18.9139 9.97758C18.3243 9.23586 18.0295 8.27305 18.0295 7.08915C18.0295 5.7531 18.3552 4.71421 19.0066 3.97249C19.658 3.23077 20.5566 2.85991 21.7025 2.85991C22.6772 2.85991 23.4736 3.07862 24.0917 3.51605C24.7146 3.95347 25.083 4.7261 25.1971 5.83393H23.1146Z" fill="white"/>
<path d="M25.8034 4.56444V3.11666H26.8874V0.948548H28.8986V3.11666H30.161V4.56444H28.8986V8.67244C28.8986 8.991 28.939 9.19069 29.0199 9.27152C29.1007 9.3476 29.3479 9.38563 29.7616 9.38563C29.8234 9.38563 29.8876 9.38563 29.9542 9.38563C30.0255 9.38088 30.0944 9.37612 30.161 9.37137V10.8905L29.1982 10.9261C28.2377 10.9594 27.5816 10.793 27.2297 10.4269C27.0015 10.1939 26.8874 9.83495 26.8874 9.34997V4.56444H25.8034Z" fill="white"/>
<path d="M35.7524 7.03923C35.624 7.12005 35.4933 7.18662 35.3602 7.23892C35.2318 7.28647 35.0535 7.33163 34.8253 7.37443L34.3688 7.46001C33.9409 7.53608 33.6342 7.6288 33.4488 7.73816C33.135 7.92359 32.9781 8.21124 32.9781 8.60112C32.9781 8.94821 33.0732 9.2002 33.2634 9.35711C33.4583 9.50925 33.6937 9.58533 33.9694 9.58533C34.4069 9.58533 34.8086 9.45695 35.1747 9.2002C35.5456 8.94345 35.7382 8.47512 35.7524 7.79521V7.03923ZM34.5186 6.09068C34.8942 6.04313 35.1628 5.9837 35.3245 5.91238C35.6145 5.78876 35.7596 5.5962 35.7596 5.33469C35.7596 5.01613 35.6478 4.79742 35.4244 4.67855C35.2056 4.55493 34.8823 4.49312 34.4544 4.49312C33.9742 4.49312 33.6342 4.61199 33.4345 4.84972C33.2919 5.02564 33.1968 5.26337 33.1493 5.56291H31.188C31.2308 4.883 31.421 4.32433 31.7585 3.88691C32.2958 3.20224 33.2182 2.85991 34.5257 2.85991C35.3768 2.85991 36.1328 3.0287 36.7937 3.36628C37.4546 3.70385 37.785 4.34097 37.785 5.27764V8.84361C37.785 9.09085 37.7898 9.39039 37.7993 9.74223C37.8135 10.0085 37.854 10.1892 37.9205 10.2843C37.9871 10.3794 38.0869 10.4578 38.2201 10.5196V10.8192H36.0092C35.9474 10.6623 35.9046 10.5149 35.8808 10.377C35.857 10.2391 35.838 10.0822 35.8237 9.90627C35.5432 10.2106 35.2199 10.4697 34.8538 10.6836C34.4164 10.9356 33.9219 11.0616 33.3703 11.0616C32.6667 11.0616 32.0842 10.8619 31.623 10.4626C31.1666 10.0584 30.9384 9.48786 30.9384 8.75089C30.9384 7.79521 31.3068 7.10341 32.0438 6.6755C32.448 6.44252 33.0423 6.27611 33.8268 6.17626L34.5186 6.09068Z" fill="white"/>
<path d="M46.6429 5.58431V10.8192H44.5604V6.09068C44.5604 5.68178 44.5057 5.36797 44.3963 5.14926C44.1966 4.74987 43.8163 4.55018 43.2552 4.55018C42.5658 4.55018 42.0927 4.84259 41.836 5.42741C41.7028 5.73646 41.6363 6.13109 41.6363 6.61131V10.8192H39.6108V3.0596H41.5721V4.19358C41.8336 3.79419 42.0808 3.50654 42.3138 3.33062C42.7322 3.01681 43.2624 2.85991 43.9042 2.85991C44.7078 2.85991 45.3639 3.07149 45.8726 3.49465C46.3861 3.91306 46.6429 4.60961 46.6429 5.58431Z" fill="white"/>
<path d="M53.5609 6.89659C53.5609 6.15962 53.404 5.59857 53.0902 5.21345C52.7811 4.82832 52.3651 4.63576 51.8421 4.63576C51.1289 4.63576 50.6368 4.97096 50.3658 5.64137C50.2231 5.99796 50.1518 6.43777 50.1518 6.96077C50.1518 7.41246 50.2279 7.81423 50.38 8.16607C50.6558 8.82221 51.1503 9.15028 51.8635 9.15028C52.3389 9.15028 52.7407 8.97198 53.0688 8.61538C53.3968 8.25403 53.5609 7.6811 53.5609 6.89659ZM52.377 3.03821C52.8715 3.24266 53.2708 3.61827 53.5751 4.16505V3.04534H55.5507V10.4198C55.5507 11.423 55.3819 12.179 55.0443 12.6877C54.4643 13.5626 53.3517 14 51.7066 14C50.7129 14 49.9022 13.8051 49.2746 13.4152C48.647 13.0253 48.2999 12.4429 48.2333 11.6679H50.4442C50.5013 11.9056 50.594 12.0768 50.7224 12.1814C50.9411 12.3668 51.3096 12.4595 51.8278 12.4595C52.56 12.4595 53.0498 12.2146 53.297 11.7249C53.4587 11.4111 53.5395 10.8833 53.5395 10.1416V9.64238C53.3445 9.97521 53.1353 10.2248 52.9119 10.3912C52.5077 10.7003 51.9823 10.8548 51.3357 10.8548C50.3372 10.8548 49.5385 10.5053 48.9394 9.80642C48.3451 9.10273 48.0479 8.15181 48.0479 6.95364C48.0479 5.79827 48.3355 4.82832 48.9109 4.04381C49.4862 3.25454 50.3016 2.85991 51.3571 2.85991C51.747 2.85991 52.0869 2.91934 52.377 3.03821Z" fill="white"/>
<path d="M59.5303 10.8192H57.4977V0.306673H59.5303V10.8192Z" fill="white"/>
<path d="M63.0036 6.15486H66.163C66.1297 5.61759 65.9657 5.21107 65.6709 4.9353C65.3809 4.65478 65.0195 4.51452 64.5869 4.51452C64.1161 4.51452 63.75 4.66191 63.4885 4.9567C63.2318 5.25149 63.0701 5.65087 63.0036 6.15486ZM67.6179 4.35048C67.9222 4.81168 68.1195 5.34658 68.2099 5.95517C68.2622 6.31177 68.2836 6.82527 68.2741 7.49567H62.9536C62.9822 8.27543 63.227 8.82221 63.6882 9.13602C63.9688 9.33096 64.3063 9.42843 64.701 9.42843C65.1194 9.42843 65.4593 9.30956 65.7208 9.07183C65.8635 8.94345 65.9895 8.76515 66.0988 8.53693H68.1742C68.1219 8.99813 67.8818 9.46646 67.4539 9.94193C66.7882 10.6979 65.8563 11.0759 64.6582 11.0759C63.6692 11.0759 62.7967 10.7573 62.0408 10.1202C61.2848 9.4831 60.9068 8.4466 60.9068 7.0107C60.9068 5.66514 61.2467 4.63338 61.9266 3.91544C62.6113 3.19749 63.498 2.83851 64.5869 2.83851C65.2335 2.83851 65.8159 2.95976 66.3342 3.20224C66.8524 3.44473 67.2803 3.82747 67.6179 4.35048Z" fill="white"/>
<path d="M75.4702 7.57412C75.5368 8.05434 75.6675 8.41331 75.8625 8.65104C76.219 9.08372 76.83 9.30005 77.6954 9.30005C78.2136 9.30005 78.6344 9.243 78.9577 9.12888C79.5711 8.91017 79.8777 8.50365 79.8777 7.90932C79.8777 7.56223 79.7256 7.2936 79.4213 7.10341C79.117 6.91798 78.6392 6.75395 77.9878 6.61131L76.8752 6.36169C75.7816 6.11445 75.0256 5.84581 74.6072 5.55578C73.8988 5.07081 73.5446 4.31245 73.5446 3.28069C73.5446 2.33928 73.8869 1.55714 74.5716 0.934284C75.2562 0.311428 76.2618 0 77.5884 0C78.6962 0 79.64 0.294787 80.4198 0.884361C81.2043 1.46918 81.6156 2.32026 81.6536 3.4376H79.5425C79.5045 2.80523 79.2287 2.35592 78.7152 2.08966C78.3729 1.91374 77.9474 1.82578 77.4386 1.82578C76.8728 1.82578 76.4211 1.93989 76.0835 2.16811C75.746 2.39633 75.5772 2.71489 75.5772 3.12379C75.5772 3.49941 75.7436 3.77993 76.0764 3.96536C76.2904 4.08898 76.7468 4.234 77.4457 4.40041L79.2573 4.83546C80.0513 5.02564 80.6504 5.28001 81.0545 5.59857C81.6821 6.09305 81.9959 6.80863 81.9959 7.74529C81.9959 8.70572 81.6274 9.5045 80.8905 10.1416C80.1583 10.774 79.1217 11.0902 77.7809 11.0902C76.4116 11.0902 75.3347 10.7787 74.5502 10.1559C73.7657 9.52827 73.3734 8.66769 73.3734 7.57412H75.4702Z" fill="white"/>
<path d="M90.0194 3.85838C90.2333 4.14841 90.3641 4.44795 90.4116 4.757C90.4592 5.0613 90.4829 5.56054 90.4829 6.25471V10.8192H88.4075V6.09068C88.4075 5.67227 88.3362 5.33469 88.1936 5.07794C88.0081 4.71659 87.6563 4.53591 87.1381 4.53591C86.6008 4.53591 86.1919 4.71659 85.9114 5.07794C85.6356 5.43454 85.4977 5.94566 85.4977 6.61131V10.8192H83.4722V0.342333H85.4977V4.05807C85.7925 3.60638 86.1324 3.29258 86.5176 3.11666C86.9075 2.93598 87.3164 2.84564 87.7443 2.84564C88.2245 2.84564 88.6595 2.92885 89.0494 3.09526C89.444 3.26167 89.7674 3.51605 90.0194 3.85838Z" fill="white"/>
<path d="M93.8706 6.15486H97.0301C96.9968 5.61759 96.8327 5.21107 96.5379 4.9353C96.2479 4.65478 95.8866 4.51452 95.4539 4.51452C94.9832 4.51452 94.6171 4.66191 94.3556 4.9567C94.0988 5.25149 93.9372 5.65087 93.8706 6.15486ZM98.485 4.35048C98.7893 4.81168 98.9866 5.34658 99.0769 5.95517C99.1292 6.31177 99.1506 6.82527 99.1411 7.49567H93.8207C93.8492 8.27543 94.0941 8.82221 94.5553 9.13602C94.8358 9.33096 95.1734 9.42843 95.568 9.42843C95.9864 9.42843 96.3264 9.30956 96.5879 9.07183C96.7305 8.94345 96.8565 8.76515 96.9659 8.53693H99.0413C98.989 8.99813 98.7489 9.46646 98.3209 9.94193C97.6553 10.6979 96.7234 11.0759 95.5252 11.0759C94.5363 11.0759 93.6638 10.7573 92.9078 10.1202C92.1518 9.4831 91.7738 8.4466 91.7738 7.0107C91.7738 5.66514 92.1138 4.63338 92.7937 3.91544C93.4783 3.19749 94.3651 2.83851 95.4539 2.83851C96.1005 2.83851 96.683 2.95976 97.2012 3.20224C97.7195 3.44473 98.1474 3.82747 98.485 4.35048Z" fill="white"/>
<path d="M102.001 6.15486H105.16C105.127 5.61759 104.963 5.21107 104.668 4.9353C104.378 4.65478 104.017 4.51452 103.584 4.51452C103.114 4.51452 102.747 4.66191 102.486 4.9567C102.229 5.25149 102.068 5.65087 102.001 6.15486ZM106.615 4.35048C106.92 4.81168 107.117 5.34658 107.207 5.95517C107.26 6.31177 107.281 6.82527 107.272 7.49567H101.951C101.98 8.27543 102.224 8.82221 102.686 9.13602C102.966 9.33096 103.304 9.42843 103.698 9.42843C104.117 9.42843 104.457 9.30956 104.718 9.07183C104.861 8.94345 104.987 8.76515 105.096 8.53693H107.172C107.119 8.99813 106.879 9.46646 106.451 9.94193C105.786 10.6979 104.854 11.0759 103.656 11.0759C102.667 11.0759 101.794 10.7573 101.038 10.1202C100.282 9.4831 99.9042 8.4466 99.9042 7.0107C99.9042 5.66514 100.244 4.63338 100.924 3.91544C101.609 3.19749 102.495 2.83851 103.584 2.83851C104.231 2.83851 104.813 2.95976 105.332 3.20224C105.85 3.44473 106.278 3.82747 106.615 4.35048Z" fill="white"/>
<path d="M107.849 4.56444V3.11666H108.933V0.948548H110.944V3.11666H112.207V4.56444H110.944V8.67244C110.944 8.991 110.985 9.19069 111.066 9.27152C111.147 9.3476 111.394 9.38563 111.807 9.38563C111.869 9.38563 111.933 9.38563 112 9.38563C112.071 9.38088 112.14 9.37612 112.207 9.37137V10.8905L111.244 10.9261C110.284 10.9594 109.627 10.793 109.276 10.4269C109.047 10.1939 108.933 9.83495 108.933 9.34997V4.56444H107.849Z" fill="white"/>
<path d="M124.117 3.7728C124.336 4.04381 124.483 4.37663 124.559 4.77127C124.607 5.03277 124.631 5.41552 124.631 5.91951L124.616 10.8192H122.534V5.86959C122.534 5.5748 122.486 5.33231 122.391 5.14213C122.211 4.78078 121.878 4.6001 121.393 4.6001C120.832 4.6001 120.444 4.83308 120.23 5.29903C120.121 5.54627 120.066 5.84344 120.066 6.19052V10.8192H118.019V6.19052C118.019 5.72933 117.972 5.39412 117.877 5.18492C117.706 4.80931 117.37 4.6215 116.871 4.6215C116.291 4.6215 115.901 4.80931 115.701 5.18492C115.592 5.39888 115.537 5.71744 115.537 6.1406V10.8192H113.476V3.0596H115.452V4.19358C115.704 3.78944 115.942 3.50178 116.165 3.33062C116.56 3.02632 117.071 2.87417 117.698 2.87417C118.293 2.87417 118.773 3.00492 119.139 3.26643C119.434 3.50891 119.657 3.82034 119.809 4.20071C120.076 3.74427 120.406 3.40907 120.801 3.19511C121.219 2.98115 121.685 2.87417 122.199 2.87417C122.541 2.87417 122.879 2.94074 123.211 3.07387C123.544 3.207 123.846 3.43997 124.117 3.7728Z" fill="white"/>
<path d="M127.99 6.15486H131.149C131.116 5.61759 130.952 5.21107 130.657 4.9353C130.367 4.65478 130.006 4.51452 129.573 4.51452C129.102 4.51452 128.736 4.66191 128.475 4.9567C128.218 5.25149 128.056 5.65087 127.99 6.15486ZM132.604 4.35048C132.908 4.81168 133.106 5.34658 133.196 5.95517C133.248 6.31177 133.27 6.82527 133.26 7.49567H127.94C127.968 8.27543 128.213 8.82221 128.674 9.13602C128.955 9.33096 129.293 9.42843 129.687 9.42843C130.106 9.42843 130.446 9.30956 130.707 9.07183C130.85 8.94345 130.976 8.76515 131.085 8.53693H133.16C133.108 8.99813 132.868 9.46646 132.44 9.94193C131.774 10.6979 130.843 11.0759 129.644 11.0759C128.655 11.0759 127.783 10.7573 127.027 10.1202C126.271 9.4831 125.893 8.4466 125.893 7.0107C125.893 5.66514 126.233 4.63338 126.913 3.91544C127.598 3.19749 128.484 2.83851 129.573 2.83851C130.22 2.83851 130.802 2.95976 131.32 3.20224C131.839 3.44473 132.267 3.82747 132.604 4.35048Z" fill="white"/>
<path d="M133.838 4.56444V3.11666H134.922V0.948548H136.933V3.11666H138.196V4.56444H136.933V8.67244C136.933 8.991 136.974 9.19069 137.055 9.27152C137.135 9.3476 137.383 9.38563 137.796 9.38563C137.858 9.38563 137.922 9.38563 137.989 9.38563C138.06 9.38088 138.129 9.37612 138.196 9.37137V10.8905L137.233 10.9261C136.272 10.9594 135.616 10.793 135.264 10.4269C135.036 10.1939 134.922 9.83495 134.922 9.34997V4.56444H133.838Z" fill="white"/>
<path d="M143.787 7.03923C143.659 7.12005 143.528 7.18662 143.395 7.23892C143.266 7.28647 143.088 7.33163 142.86 7.37443L142.403 7.46001C141.976 7.53608 141.669 7.6288 141.483 7.73816C141.17 7.92359 141.013 8.21124 141.013 8.60112C141.013 8.94821 141.108 9.2002 141.298 9.35711C141.493 9.50925 141.728 9.58533 142.004 9.58533C142.441 9.58533 142.843 9.45695 143.209 9.2002C143.58 8.94345 143.773 8.47512 143.787 7.79521V7.03923ZM142.553 6.09068C142.929 6.04313 143.197 5.9837 143.359 5.91238C143.649 5.78876 143.794 5.5962 143.794 5.33469C143.794 5.01613 143.682 4.79742 143.459 4.67855C143.24 4.55493 142.917 4.49312 142.489 4.49312C142.009 4.49312 141.669 4.61199 141.469 4.84972C141.327 5.02564 141.231 5.26337 141.184 5.56291H139.223C139.265 4.883 139.456 4.32433 139.793 3.88691C140.33 3.20224 141.253 2.85991 142.56 2.85991C143.411 2.85991 144.167 3.0287 144.828 3.36628C145.489 3.70385 145.82 4.34097 145.82 5.27764V8.84361C145.82 9.09085 145.824 9.39039 145.834 9.74223C145.848 10.0085 145.889 10.1892 145.955 10.2843C146.022 10.3794 146.122 10.4578 146.255 10.5196V10.8192H144.044C143.982 10.6623 143.939 10.5149 143.915 10.377C143.892 10.2391 143.873 10.0822 143.858 9.90627C143.578 10.2106 143.255 10.4697 142.888 10.6836C142.451 10.9356 141.957 11.0616 141.405 11.0616C140.701 11.0616 140.119 10.8619 139.658 10.4626C139.201 10.0584 138.973 9.48786 138.973 8.75089C138.973 7.79521 139.341 7.10341 140.078 6.6755C140.483 6.44252 141.077 6.27611 141.861 6.17626L142.553 6.09068Z" fill="white"/>
<path d="M149.707 10.8192H147.674V0.306673H149.707V10.8192Z" fill="white"/>
</svg>
