<svg width="38" height="38" viewBox="0 0 38 38" fill="none" xmlns="http://www.w3.org/2000/svg">
<path d="M12.5592 17.3809L25.1904 17.4783L21.1923 13.3616L23.4566 11.179L31.1452 19.0957L23.3354 26.8929L21.1051 24.6756L25.1662 20.6211L12.5349 20.5237L12.5592 17.3809ZM6.42036 9.47618C6.42702 8.61192 6.73624 7.8744 7.34801 7.26363C7.95978 6.65285 8.69188 6.35075 9.5443 6.35732L14.1938 6.39318L14.1696 9.53594L9.52006 9.50009L9.37463 28.3567L14.0242 28.3925L13.9999 31.5353L9.3504 31.4994C8.49798 31.4929 7.77063 31.1795 7.16835 30.5594C6.56608 29.9392 6.26827 29.197 6.27494 28.3328L6.42036 9.47618Z" fill="#1D1B20"/>
</svg>
