<svg width="40" height="26" viewBox="0 0 40 26" fill="none" xmlns="http://www.w3.org/2000/svg">
<path fill-rule="evenodd" clip-rule="evenodd" d="M19.9955 1.17993L31.8137 12.9981L19.9955 24.8163L8.17737 12.9981L19.9955 1.17993ZM11.5559 12.9981L19.9955 21.4378L28.4352 12.9981L19.9955 4.55843L11.5559 12.9981Z" fill="white" stroke="white" stroke-width="0.5" stroke-linejoin="round"/>
<path fill-rule="evenodd" clip-rule="evenodd" d="M9.8657 3.7124L19.1514 12.9981L9.8657 22.2838L0.579987 12.9981L9.8657 3.7124ZM3.95849 12.9981L9.8657 18.9053L15.7729 12.9981L9.8657 7.0909L3.95849 12.9981Z" fill="white"/>
<path fill-rule="evenodd" clip-rule="evenodd" d="M30.1254 3.7124L39.4111 12.9981L30.1254 22.2838L20.8397 12.9981L30.1254 3.7124ZM24.2182 12.9981L30.1254 18.9053L36.0326 12.9981L30.1254 7.0909L24.2182 12.9981Z" fill="white"/>
<path d="M28.4352 12.9981L19.9956 4.55843V1.17993L31.8137 12.9981H28.4352Z" fill="white"/>
<path d="M11.5559 12.9981L19.9955 21.4378V24.8163L8.17737 12.9981H11.5559Z" fill="white"/>
<path d="M28.4352 12.9981L19.9956 4.55843V1.17993L31.8137 12.9981H28.4352Z" stroke="white" stroke-width="0.5" stroke-linejoin="round"/>
<path d="M11.5559 12.9981L19.9955 21.4378V24.8163L8.17737 12.9981H11.5559Z" stroke="white" stroke-width="0.5" stroke-linejoin="round"/>
</svg>
