<svg width="87" height="56" viewBox="0 0 87 56" fill="none" xmlns="http://www.w3.org/2000/svg">
<path fill-rule="evenodd" clip-rule="evenodd" d="M43.4904 2.54153L69.195 27.9961L43.4904 53.4506L17.7859 27.9961L43.4904 2.54153ZM25.1341 27.9961L43.4904 46.1739L61.8467 27.9961L43.4904 9.81831L25.1341 27.9961Z" fill="#FFBA13" stroke="#FFBA13" stroke-width="0.5" stroke-linejoin="round"/>
<path fill-rule="evenodd" clip-rule="evenodd" d="M21.4579 7.996L41.6543 27.996L21.4579 47.996L1.26147 27.996L21.4579 7.996ZM8.60971 27.996L21.4579 40.7192L34.3061 27.996L21.4579 15.2728L8.60971 27.996Z" fill="#003C78"/>
<path fill-rule="evenodd" clip-rule="evenodd" d="M65.5228 7.996L85.7193 27.996L65.5228 47.996L45.3264 27.996L65.5228 7.996ZM52.6747 27.996L65.5228 40.7192L78.371 27.996L65.5228 15.2728L52.6747 27.996Z" fill="#003C78"/>
<path d="M61.8467 27.9961L43.4904 9.81831V2.54153L69.195 27.9961H61.8467Z" fill="#FFBA13"/>
<path d="M25.1341 27.9961L43.4904 46.1739V53.4506L17.7859 27.9961H25.1341Z" fill="#FFBA13"/>
<path d="M61.8467 27.9961L43.4904 9.81831V2.54153L69.195 27.9961H61.8467Z" stroke="#FFBA13" stroke-width="0.5" stroke-linejoin="round"/>
<path d="M25.1341 27.9961L43.4904 46.1739V53.4506L17.7859 27.9961H25.1341Z" stroke="#FFBA13" stroke-width="0.5" stroke-linejoin="round"/>
</svg>
