<svg width="32" height="30" viewBox="0 0 32 30" fill="none" xmlns="http://www.w3.org/2000/svg">
<path d="M5.33203 23.75V21.25H7.9987V12.5C7.9987 10.7708 8.55425 9.23958 9.66536 7.90625C10.7765 6.55208 12.2209 5.66667 13.9987 5.25V4.375C13.9987 3.85417 14.1876 3.41667 14.5654 3.0625C14.9654 2.6875 15.4431 2.5 15.9987 2.5C16.5543 2.5 17.0209 2.6875 17.3987 3.0625C17.7987 3.41667 17.9987 3.85417 17.9987 4.375V5.25C19.7765 5.66667 21.2209 6.55208 22.332 7.90625C23.4431 9.23958 23.9987 10.7708 23.9987 12.5V21.25H26.6654V23.75H5.33203ZM15.9987 27.5C15.2654 27.5 14.632 27.2604 14.0987 26.7812C13.5876 26.2812 13.332 25.6875 13.332 25H18.6654C18.6654 25.6875 18.3987 26.2812 17.8654 26.7812C17.3543 27.2604 16.732 27.5 15.9987 27.5ZM10.6654 21.25H21.332V12.5C21.332 11.125 20.8098 9.94792 19.7654 8.96875C18.7209 7.98958 17.4654 7.5 15.9987 7.5C14.532 7.5 13.2765 7.98958 12.232 8.96875C11.1876 9.94792 10.6654 11.125 10.6654 12.5V21.25Z" fill="#1D1B20"/>
</svg>
